/* XPM */
static char *result[] = {
/* columns rows colors chars-per-pixel */
"70 41 172 2 ",
"   c black",
".  c #010101",
"X  c #020202",
"o  c gray1",
"O  c #040404",
"+  c gray2",
"@  c #060606",
"#  c #070707",
"$  c gray3",
"%  c #090909",
"&  c gray4",
"*  c #0B0B0B",
"=  c #0C0C0C",
"-  c gray5",
";  c #0E0E0E",
":  c gray6",
">  c #101010",
",  c #111111",
"<  c gray7",
"1  c #131313",
"2  c gray8",
"3  c #151515",
"4  c #161616",
"5  c gray9",
"6  c #181818",
"7  c #191919",
"8  c gray10",
"9  c #1B1B1B",
"0  c gray11",
"q  c #1D1D1D",
"w  c #1E1E1E",
"e  c gray12",
"r  c #202020",
"t  c gray13",
"y  c #222222",
"u  c #232323",
"i  c gray14",
"p  c gray15",
"a  c #2A2A2A",
"s  c #2C2C2C",
"d  c gray18",
"f  c #2F2F2F",
"g  c #313131",
"h  c gray20",
"j  c #343434",
"k  c gray21",
"l  c gray22",
"z  c #3A3A3A",
"x  c gray23",
"c  c #3E3E3E",
"v  c gray25",
"b  c #414141",
"n  c gray27",
"m  c #484848",
"M  c #494949",
"N  c gray29",
"B  c #4B4B4B",
"V  c #4C4C4C",
"C  c gray30",
"Z  c #515151",
"A  c gray32",
"S  c #535353",
"D  c gray33",
"F  c gray35",
"G  c #5A5A5A",
"H  c #5B5B5B",
"J  c gray36",
"K  c gray37",
"L  c #5F5F5F",
"P  c gray38",
"I  c #626262",
"U  c gray39",
"Y  c #646464",
"T  c #656565",
"R  c gray40",
"E  c #676767",
"W  c #686868",
"Q  c #6A6A6A",
"!  c gray42",
"~  c #6C6C6C",
"^  c #717171",
"/  c #727272",
"(  c #747474",
")  c #777777",
"_  c gray47",
"`  c #797979",
"'  c #7B7B7B",
"]  c #7C7C7C",
"[  c gray49",
"{  c gray50",
"}  c gray51",
"|  c #848484",
" . c #868686",
".. c #888888",
"X. c #898989",
"o. c #8D8D8D",
"O. c #8E8E8E",
"+. c #909090",
"@. c gray57",
"#. c #939393",
"$. c #959595",
"%. c #979797",
"&. c gray60",
"*. c #9A9A9A",
"=. c #9D9D9D",
"-. c #A0A0A0",
";. c gray63",
":. c gray64",
">. c gray65",
",. c #A7A7A7",
"<. c #AAAAAA",
"1. c gray67",
"2. c #ACACAC",
"3. c #AEAEAE",
"4. c #B1B1B1",
"5. c #B4B4B4",
"6. c gray71",
"7. c #B6B6B6",
"8. c #B7B7B7",
"9. c gray72",
"0. c gray73",
"q. c #BCBCBC",
"w. c gray74",
"e. c gray",
"r. c gray75",
"t. c gray76",
"y. c gray77",
"u. c #C5C5C5",
"i. c #C6C6C6",
"p. c gray78",
"a. c #C8C8C8",
"s. c #CBCBCB",
"d. c gray80",
"f. c #CDCDCD",
"g. c #D0D0D0",
"h. c #D2D2D2",
"j. c LightGray",
"k. c gray84",
"l. c #D8D8D8",
"z. c gray85",
"x. c #DADADA",
"c. c gray86",
"v. c gainsboro",
"b. c #DDDDDD",
"n. c #DFDFDF",
"m. c gray88",
"M. c #E2E2E2",
"N. c gray89",
"B. c gray90",
"V. c #E6E6E6",
"C. c #EAEAEA",
"Z. c gray92",
"A. c #ECECEC",
"S. c gray93",
"D. c #EEEEEE",
"F. c #EFEFEF",
"G. c gray94",
"H. c #F1F1F1",
"J. c #F3F3F3",
"K. c #F4F4F4",
"L. c gray96",
"P. c #F6F6F6",
"I. c gray97",
"U. c #F8F8F8",
"Y. c #F9F9F9",
"T. c gray98",
"R. c #FBFBFB",
"E. c gray99",
"W. c #FDFDFD",
"Q. c #FEFEFE",
"!. c white",
"~. c None",
/* pixels */
"~.~.~.~.~.~.~.~.~.~.~.~.~.~.~.~.~.~.~.~.~.~.~.~.~.~.~.~.~.~.~.~.~.~.~.~.~.~.~.~.~.~.~.~.~.~.~.~.~.~.~.~.~.~.> + 6 5 # . ~.~.~.~.~.~.~.~.~.~.",
"~.~.~.~.~.~.~.~.~.~.~.~.~.~.~.~.~.~.~.~.~.~.~.~.~.~.~.~.~.~.~.~.~.~.~.~.~.~.~.~.~.~.~.~.~.~.~.~.~.~.~.~.~.o .     X O 4 & ~.~.~.~.~.~.~.~.~.",
"~.~.~.~.~.~.~.~.~.~.~.~.~.~.~.~.~.~.~.~.~.~.~.~.~.~.~.~.~.~.~.~.~.~.~.~.~.~.~.~.~.~.~.~.~.~.~.~.~.~.~.    @ r x k 7 X   = = ~.~.~.~.~.~.~.~.",
"~.~.~.~.~.~.~.~.~.~.~.~.~.~.~.~.~.~.~.~.~.~.~.~.~.~.~.~.~.~.~.~.~.~.~.~.~.~.~.~.~.~.~.~.~.~.~.~.~.~.    A A.E.!.!.!.3.2   o u ~.~.~.~.~.~.~.",
"~.~.~.~.~.~.~.~.~.~.~.~.~.~.~.~.~.~.~.~.~.~.~.~.~.~.~.~.~.~.~.~.~.~.~.~.~.~.~.~.~.~.~.~.~.~.~.~.~.  d N.!.E.!.Q.U.!.Q.R.K   % e ~.~.~.~.~.~.",
"~.~.~.~.~.~.~.~.~.~.~.~.~.~.~.~.~.~.~.~.~.~.~.~.~.~.~.~.~.~.~.~.~.~.~.~.~.~.~.~.~.~.~.~.~.~.~.* o f c.Q.!.!.R.W.!.!.Q.R.R.Y   w ~.~.~.~.~.~.",
"~.~.~.~.~.~.~.~.~.~.~.~.~.~.~.~.~.~.~.~.~.~.~.~.~.~.~.~.~.~.~.~.~.~.~.~.~.~.~.~.~.~.~.~.~.~.>   1 e.!.!.I.Q.!.R.Y.Q.Q.!.W.j.9 X t ~.~.~.~.~.",
"~.~.~.~.~.~.~.& $ @ ; = , X ~.~.~.~.~.~.~.~.~.~.~.~.~.~.~.~.~.~.~.~.~.~.~.~.~.~.~.~.~.~.~.3   O ;.!.T.!.!.E.E.!.!.!.Q.E.!.E.Z   ; ~.~.~.~.~.",
"~.~.~.~.~., X o   .     O - 1 ~.~.~.~.~.~.~.~.~.~.~.~.~.~.~.~.~.~.~.~.~.~.~.~.~.~.~.~.~.> X $ %.!.W.Q.R.Q.!.E.Q.!.W.!.R.!.!.J . = ~.~.~.~.~.",
"~.~.~.> &   o % W 4.@.B     + = e ~.~.~.~.~.~.~.~.~.~.~.~.~.~.~.~.~.~.~.~.~.~.~.~.q : O   , q.!.W.R.!.!.!.W.U.Q.T.!.Q.Q.!.W.L   $ ~.~.~.~.~.",
"~.~.w X o - >.Q.E.Q.!.Y.v.] o . X < ~.~.~.~.~.~.~.~.~.~.~.~.~.~.~.~.~.~.~.~.~.: ;       H l.Y.T.!.Q.!.E.W.!.!.!.!.E.!.W.T.!.P   @ ~.~.~.~.~.",
"~.9 .   x n.E.!.W.W.!.W.!.R.f.h X @ < % ~.~.~.~.~.~.~.~.~.~.~.~.~.~.~.$ < $ . o   > C 7.!.Y.!.!.Q.W.!.!.W.W.E.T.Q.Y.R.!.!.!.G   * ~.~.~.~.~.",
"~.; O # z.Q.!.Q.!.E.!.!.T.E.!.M.A     o % @       ~.~.~.~.~.  $ w   . O o   r P $.0.!.!.!.W.!.Y.!.E.Q.!.Q.R.Q.Q.W.!.R.!.E.F.M   % ~.~.~.~.~.",
"< .   1.!.T.E.!.!.Q.W.Y.W.!.R.Q.U.@.;       X o O o   X       O   o . f ) M.T.Q.W.!.W.R.I.!.R.!.!.!.W.E.W.!.!.Z.} p.Q.T.!.m.u + 4 ~.~.~.~.~.",
"1   k !.E.!.W.U.!.R.!.!.!.I.Q.!.Q.!.P.( z 7 : % # * & 5 8 a z S ..t.P.!.Q.!.!.W.!.W.Q.!.W.Y.!.Q.E.!.!.Q.Q.!.P.k.y   E i.W.5.$   7 ~.~.~.~.~.",
"o   R W.W.Q.!.!.R.!.E.E.!.W.!.W.R.Q.!.E.!.H.8.6.7.6.9.l.S.Q.R.!.E.!.!.R.!.Y.!.!.Q.E.Q.E.!.E.W.E.!.E.R.!.W.T.!.E.0.N     T M . 0 ~.~.~.~.~.~.",
"X   #.E.!.R.!.E.Q.W.E.!.!.R.W.Q.Q.Q.Q.Q.Q.Q.Q.Q.!.!.!.!.!.!.!.!.Q.Q.Q.Q.Q.Q.Q.Q.Q.Q.Q.Q.Q.Q.Q.Q.Q.Q.Q.Q.Q.Q.Q.Q.!.L.&.&     - w ~.~.~.~.~.~.",
".   =.W.!.!.T.Q.Q.!.R.I.Q.Q.!.W.Q.Q.Q.Q.Q.Q.Q.Q.Q.Q.Q.Q.Q.Q.Q.Q.Q.Q.Q.Q.Q.Q.Q.Q.Q.Q.Q.Q.Q.Q.Q.Q.Q.Q.Q.Q.Q.Q.Q.Q.R.!.!.l.> X   o 9 ~.~.~.~.~.",
"-   A !.R.R.!.!.!.R.!.!.!.!.P.!.Q.Q.Q.Q.Q.Q.Q.Q.Q.Q.Q.Q.Q.Q.Q.Q.Q.Q.Q.Q.Q.Q.Q.Q.Q.Q.Q.Q.Q.Q.Q.Q.Q.Q.Q.Q.Q.Q.Q.Q.!.P.E.!.U./ - . # 9 ~.~.~.~.",
"8   i W.Q.Q.U.!.W.T.R.C.K.T.!.W.Q.Q.Q.Q.Q.Q.Q.Q.Q.Q.Q.Q.Q.Q.Q.Q.Q.Q.Q.Q.Q.Q.Q.Q.Q.Q.Q.Q.Q.Q.Q.Q.Q.Q.Q.Q.Q.Q.Q.Q.Q.!.R.T.!.!.#.  O % ~.~.~.~.",
"~.    ! !.W.!.W.!.!.~ X y.Q.U.Q.Q.Q.Q.Q.Q.Q.Q.Q.Q.Q.Q.Q.Q.Q.Q.Q.Q.Q.Q.Q.Q.Q.Q.Q.Q.Q.Q.Q.Q.Q.Q.Q.Q.Q.Q.Q.Q.Q.Q.Q.R.!.!.W.!.W.!.K   X q ~.~.~.",
"~.2 . O t.!.!.Y.>.1 > *.Q.E.Q.!.Q.Q.Q.Q.Q.Q.Q.Q.Q.Q.Q.Q.Q.Q.Q.Q.Q.Q.Q.Q.Q.Q.Q.Q.Q.Q.Q.Q.Q.Q.Q.Q.Q.Q.Q.Q.Q.Q.Q.Q.Q.Q.Y.Q.!.E.!.R.r # * ~.~.~.",
"~., %   w r.T.[ # = e.!.Q.!.E.Q.Q.Q.Q.Q.Q.Q.Q.Q.Q.Q.Q.Q.Q.Q.Q.Q.Q.Q.Q.Q.Q.Q.Q.Q.Q.Q.Q.Q.Q.Q.Q.Q.Q.Q.Q.Q.Q.Q.Q.Q.!.E.!.!.Y.!.E.!.-.  @ ~.~.~.",
"~.~.y .   - j   5 B.W.!.!.!.Q.W.Q.Q.Q.Q.Q.Q.Q.Q.Q.Q.Q.Q.Q.Q.Q.Q.Q.Q.Q.Q.Q.Q.Q.Q.Q.Q.Q.Q.Q.Q.Q.Q.Q.Q.Q.Q.Q.Q.Q.Q.!.T.Q.!.!.E.!.W.u.    ~.~.~.",
"~.~.~.r @     6 s.R.!.T.!.Q.Q.!.Q.W.Q.!.R.Q.!.W.Q.!.W.W.Q.!.Y.!.Q.!.W.W.!.!.U.G.D.:.] Q R O.V.!.Q.!.E.W.!.W.R.!.!.T.W.!.W.W.!.Q.i.o   ~.~.~.",
"~.~.~.~.d   X e.W.!.E.!.!.R.E.!.W.!.!.E.W.Q.Q.!.!.U.!.!.!.W.!.!.!.b.,.X.| ^ n 5   X   +   . 2 P -.W.!.W.T.!.!.Q.Q.!.!.E.!.W.!.W.5.    ~.~.~.",
"~.~.~.~.-   %.!.!.W.Y.!.Q.R.!.Q.Q.Y.Q.Y.!.Q.W.!.Q.!.K.a.O.` I V c u o   o o     X : ; 2 $   X . O  .!.!.!.T.!.E.T.!.R.!.!.!.E.!.F X 0 ~.~.~.",
"~.~.~.~.+ : Q.T.U.Q.!.!.E.Q.!.R.!.!.!.!.!.E.Q.R.!.<.l     +       @ ~.~.~.~.~.~.~.~.~.~.~.~.~.@   @ ..Q.Q.!.Q.W.W.!.R.Q.E.W.!.S.& o ~.~.~.~.",
"~.~.~.t   C !.E.!.!.Q.!.!.Q.Q.W.Q.E.W.!.I.Q.!.9.s     @ + ~.~.~.~.~.~.~.~.~.~.~.~.~.~.~.~.~.~.~.* $   c g.!.Q.!.!.Y.!.Q.W.!.z.p   ~.~.~.~.~.",
"~.~.~.  O o.!.W.W.W.Y.T.!.Q.E.!.!.R.!.W.!.I.` =   @ ~.~.~.~.~.~.~.~.~.~.~.~.~.~.~.~.~.~.~.~.~.~.~.9 +   t _ S.!.!.W.!.!.E.w.j   ~.~.~.~.~.~.",
"~.~.~.X   { W.Q.E.!.!.Q.Q.!.W.Q.W.!.T.E.J.v     3 ~.~.~.~.~.~.~.~.~.~.~.~.~.~.~.~.~.~.~.~.~.~.~.~.  9 =   O 5 @.h.x.d.i.U = o 1 ~.~.~.~.~.~.",
"~.~.~.q o r W.W.!.R.W.!.W.!.!.Q.Q.Q.Q.Q.'   o < ~.~.~.~.~.~.~.~.~.~.~.~.~.~.~.~.~.~.~.~.~.~.~.~.~.~.  < 3 +   X       .     ~.~.~.~.~.~.~.~.",
"~.~.~.y   X D.!.!.T.E.!.R.Q.Q.!.!.E.E.$.X X 2 ~.~.~.~.~.~.~.~.~.~.~.~.~.~.~.~.~.~.~.~.~.~.~.~.~.~.~.~.~.~.- : * % % * = ~.~.~.~.~.~.~.~.~.~.",
"~.~.~.~.# X g !.P.!.!.R.!.T.W.W.K.!.2.+ o $ ~.~.~.~.~.~.~.~.~.~.~.~.~.~.~.~.~.~.~.~.~.~.~.~.~.~.~.~.~.~.~.~.~.~.~.~.~.~.~.~.~.~.~.~.~.~.~.~.",
"~.~.~.~.&   O 3.!.W.!.R.E.!.E.!.!.v.3     j ~.~.~.~.~.~.~.~.~.~.~.~.~.~.~.~.~.~.~.~.~.~.~.~.~.~.~.~.~.~.~.~.~.~.~.~.~.~.~.~.~.~.~.~.~.~.~.~.",
"~.~.~.~.~.O   a d.!.!.!.R.!.Y.!.T.D   X 5 ~.~.~.~.~.~.~.~.~.~.~.~.~.~.~.~.~.~.~.~.~.~.~.~.~.~.~.~.~.~.~.~.~.~.~.~.~.~.~.~.~.~.~.~.~.~.~.~.~.",
"~.~.~.~.~.t     a Z.E.!.!.U.!.W.m # + p ~.~.~.~.~.~.~.~.~.~.~.~.~.~.~.~.~.~.~.~.~.~.~.~.~.~.~.~.~.~.~.~.~.~.~.~.~.~.~.~.~.~.~.~.~.~.~.~.~.~.",
"~.~.~.~.~.~.b o   $ D +.@.#.~ 8   o e ~.~.~.~.~.~.~.~.~.~.~.~.~.~.~.~.~.~.~.~.~.~.~.~.~.~.~.~.~.~.~.~.~.~.~.~.~.~.~.~.~.~.~.~.~.~.~.~.~.~.~.",
"~.~.~.~.~.~.~.> * O     o   o # ; ~.~.~.~.~.~.~.~.~.~.~.~.~.~.~.~.~.~.~.~.~.~.~.~.~.~.~.~.~.~.~.~.~.~.~.~.~.~.~.~.~.~.~.~.~.~.~.~.~.~.~.~.~.",
"~.~.~.~.~.~.~.~.~.~.# 2 < ; O ~.~.~.~.~.~.~.~.~.~.~.~.~.~.~.~.~.~.~.~.~.~.~.~.~.~.~.~.~.~.~.~.~.~.~.~.~.~.~.~.~.~.~.~.~.~.~.~.~.~.~.~.~.~.~.",
"~.~.~.~.~.~.~.~.~.~.~.~.~.~.~.~.~.~.~.~.~.~.~.~.~.~.~.~.~.~.~.~.~.~.~.~.~.~.~.~.~.~.~.~.~.~.~.~.~.~.~.~.~.~.~.~.~.~.~.~.~.~.~.~.~.~.~.~.~.~."
};
