/* XPM */
static char *result[] = {
/* columns rows colors chars-per-pixel */
"70 70 227 2 ",
"   c #010101",
".  c #0B0908",
"X  c #171718",
"o  c #161015",
"O  c #2B160E",
"+  c #181621",
"@  c #1F242E",
"#  c #262728",
"$  c #282939",
"%  c #353638",
"&  c #2F363F",
"*  c #382213",
"=  c #723911",
"-  c #47220E",
";  c #6A422D",
":  c #3B1A4E",
">  c #2E2841",
",  c #322945",
"<  c #342847",
"1  c #323245",
"2  c #3B374C",
"3  c #383948",
"4  c #392956",
"5  c #363557",
"6  c #2D2E50",
"7  c #373260",
"8  c #473956",
"9  c #4A305C",
"0  c #4D2B67",
"q  c #512C6C",
"w  c #5C3676",
"e  c #592D77",
"r  c #633777",
"t  c #643D6E",
"y  c #3F4952",
"u  c #444548",
"i  c #434252",
"p  c #494B57",
"a  c #575959",
"s  c #4F4E5E",
"d  c #494664",
"f  c #574566",
"g  c #5D5D6B",
"h  c #565869",
"j  c #464572",
"k  c #5D5677",
"l  c #4C5364",
"z  c #68476A",
"x  c #6E4B70",
"c  c #645E7C",
"v  c #775377",
"b  c #7A4A7E",
"n  c #5B6476",
"m  c #666668",
"M  c #646979",
"N  c #787A7C",
"B  c #6E7076",
"V  c #6B5850",
"C  c #A85C2A",
"Z  c #CC763D",
"A  c #81547B",
"S  c #947869",
"D  c #C09A7F",
"F  c #592D85",
"G  c #673B85",
"H  c #743C95",
"J  c #6F3A96",
"K  c #7F3AA8",
"L  c #724E8D",
"P  c #5B6285",
"I  c #6A7486",
"U  c #7C7A8B",
"Y  c #747A86",
"T  c #767C95",
"R  c #6D6D90",
"E  c #833EA9",
"W  c #875783",
"Q  c #8C4D9B",
"!  c #93628B",
"~  c #9B6591",
"^  c #8A7D99",
"/  c #A96B9B",
"(  c #8745AA",
")  c #9347BA",
"_  c #8D43B3",
"`  c #B86CB5",
"'  c #AA68A4",
"]  c #C67CB3",
"[  c #C37CAE",
"{  c #863AD5",
"}  c #893BD6",
"|  c #8E3DD9",
" . c #8137D2",
".. c #913FDA",
"X. c #863BCC",
"o. c #9C49C3",
"O. c #9541DC",
"+. c #9943DE",
"@. c #9B46D7",
"#. c #A44CCD",
"$. c #AD4ED9",
"%. c #B557D8",
"&. c #A951D0",
"*. c #9E45E1",
"=. c #A146E3",
"-. c #A649E5",
";. c #A94AE7",
":. c #AD4CE9",
">. c #B24FEC",
",. c #B550EE",
"<. c #BB54EC",
"1. c #B752E5",
"2. c #BD54F1",
"3. c #B34EF0",
"4. c #D574DC",
"5. c #CA75C7",
"6. c #C156F4",
"7. c #C659F6",
"8. c #CB5DF7",
"9. c #C657F9",
"0. c #C758F9",
"q. c #CA5AF9",
"w. c #D15DFF",
"e. c #C157EF",
"r. c #D76DEF",
"t. c #D96FEE",
"y. c #DD74EC",
"u. c #DF7AE7",
"i. c #CE61F4",
"p. c #D165F3",
"a. c #D469F1",
"s. c #D96DF3",
"d. c #D463FC",
"f. c #D56BEE",
"g. c #E37DE5",
"h. c #E27BE9",
"j. c #E476F5",
"k. c #7A8396",
"l. c #7A838E",
"z. c #868685",
"x. c #878C98",
"c. c #8D929B",
"v. c #979897",
"b. c #988B85",
"n. c #8B97A8",
"m. c #8E98B4",
"M. c #8E98AB",
"N. c #A893AA",
"B. c #98A3AB",
"V. c #9AA4B1",
"C. c #9AAAB4",
"Z. c #98A8B7",
"A. c #A5A5A6",
"S. c #A8ADB4",
"D. c #B4B5B9",
"F. c #AFB2B8",
"G. c #D2A791",
"H. c #D787BD",
"J. c #C988B9",
"K. c #DCA98C",
"L. c #9EACC5",
"P. c #A8B7CA",
"I. c #B4BCC8",
"U. c #ADBED2",
"Y. c #ABB9D5",
"T. c #A3ACC9",
"R. c #D986C6",
"E. c #DB80D2",
"W. c #E48CCB",
"Q. c #E991CE",
"!. c #ED8DDA",
"~. c #F08FDF",
"^. c #EE92D5",
"/. c #F494DC",
"(. c #F897D9",
"). c #F79ADC",
"_. c #FA9ADB",
"`. c #F597D5",
"'. c #FCA3DE",
"]. c #FAABDF",
"[. c #F1B3DE",
"{. c #E681E6",
"}. c #EA86E3",
"|. c #ED8AE1",
" X c #EB83EB",
".X c #F18DE4",
"XX c #F48CE9",
"oX c #F996E1",
"OX c #EA80F0",
"+X c #FCA4E0",
"@X c #FCB2E3",
"#X c #FCBBE7",
"$X c #C7B6C6",
"%X c #B7C3CC",
"&X c #B4C2D9",
"*X c #AFC0D2",
"=X c #BBCBE5",
"-X c #BECEE9",
";X c #BFD0E8",
":X c #CACCCE",
">X c #C2C4C9",
",X c #D5D7D9",
"<X c #CDD1D5",
"1X c #C1D1ED",
"2X c #CDD1E5",
"3X c #D7DDE8",
"4X c #C4D4F2",
"5X c #CBDCFD",
"6X c #C8D9F6",
"7X c #CBD7F1",
"8X c #FDCCED",
"9X c #FCC4EA",
"0X c #FEDBF2",
"qX c #F0D9EA",
"wX c #DFE2E8",
"eX c #DCE4F3",
"rX c #D8E5FC",
"tX c #E6E6E7",
"yX c #E6ECF8",
"uX c #FEE8F7",
"iX c #E9F1FF",
"pX c #F3F6FC",
"aX c #FEFEFF",
"sX c #F6F5F9",
"dX c #F6EEE7",
"fX c #FBDBCC",
"gX c None",
/* pixels */
"gXgXgXgXgXgXgXgXgXgXgXgXgXgXgXgXgXgXgXgXgXgXgXgXgXgXgXgXgXgXgXgXgXgXgXgXgXgXgXgXgXgXgXgXgXgXgXgXgXgXgXgXgXgXgXgXgXgXgXgXgXgXgXgXgXgXgXgXgXgX",
"gXgXgXgXgXgXgXgXgXgXgXgXgXgXgXgXgXgXgXgXgXgXgXgXgXgXgXgXgXgXgXgXgXgXgXgXgXgXgXgXgXgXgXgXgXgXgXgXgXgXgXgXgXgXgXgXgXgXgXgXgXgXgXgXgXgXgXgXgXgX",
"gXgXgXgXgXgXgXgXgXgXgXgXgXgXgXgXgXgXgXgXgXgXgXgXgXgXgXgXgXgXgXgXgXgXgXgXgXgXgXgXgXgXgXgXgXgXgXgXgXgXgXgXgXgXgXgXgXgXgXgXgXgXgXgXgXgXgXgXgXgX",
"gXgXgXgXgXgXgXgXgXgXgXgXgXgXgXgXgXgXgXgXgXgXgXgXgXgXgXgXgXgXgXgXgXgXgXgXgXgXgXgXgXgXgXgXgXgXgXgXgXgXgXgXgXgXgXgXgXgXgXgXgXgXgXgXgXgXgXgXgXgX",
"gXgXgXgXgXgXgXgXgXgXgXgXgXgXgXgXgXgXgXgXgXgXgXgXgXgXgXgXgXgXgXgXgXgXgXgXgXgXgXgXgXgXgXgXgXgXgXgXgXgXgXgXgXgXgXgXgXgXgXgXgXgXgXgXgXgXgXgXgXgX",
"gXgXgXgXgXgXgXgXgXgXgXgXgXgXgXgXgXgXgXgXgXgXgXgXgXgXgXgXgXgXgXgXgXgXgXgXgXgXgXgXgXgXgXgXgXgXgXgXgXgXgXgXgXgXgXgXgXgXgXgXgXgXgXgXgXgXgXgXgXgX",
"gXgXgXgXgXgXgXgXgXgXgXgXgXgXgXgXgXgXgXgXgXgXgXgXgXgXgXgXgXgXgXgXgXgXgXgXgXgXgXgXgXgXgXgXgXgXgXgXgXgXgXgXgXgXgXgXgXgXgXgXgXgXgXgXgXgXgXgXgXgX",
"gXgXgXgXgXgXgXgXgXgXgXgXgXgXgXgXgXgXgXgXgXgXgXgXgXgXgXgXgXgXgXgXgXgXgXgXgXgXgXgXgXgXgXgXgXgXgXgXgXgXgXgXgXgXgXgXgXgXgXgXgXgXgXgXgXgXgXgXgXgX",
"gXgXgXgXgXgXgXgXgXgXgXgXgXgXgXgXgXgXgXgXgXgXgXgXgXgXgXgXgXgXgXgXgXgXgXgXgXgXgXgXgXgXgXgXgXgXgXgXgXgXgXgXgXgXgXgXgXgXgXgXgXgXgXgXgXgXgXgXgXgX",
"gXgXgXgXgXgXgXgXgXgXgXgXgXgXgXgXgXgXgXgXgXgXgXgXgXgXgXgXgXgXgXgXgXgXgXgXgXgXgXgXgXgX} { { } gXgXgXgXgXgXgXgXgXgXgXgXgXgXgXgXgXgXgXgXgXgXgXgX",
"gXgXgXgXgXgXgXgXgXgXgXgXgXgXgXgXgXgXgXgXgXgXgXgXgXgXgXgXgXgXgXgXgXgXgXgXgXgXgXgXgX{ { { { { gXgXgXgXgXgXgXgXgXgXgXgXgXgXgXgXgXgXgXgXgXgXgXgX",
"gXgXgXgXgXgXgXgXgXgXgXgXgXgXgXgXgXgXgXgX{ } { { { { gXgXgXgXgXgXgXgXgX{  .{ { { } { { } } { { { gXgXgXgXgXgXgXgXgXgXgXgXgXgXgXgXgXgXgXgXgXgX",
"gXgXgXgXgXgXgXgXgXgXgXgXgXgXgXgXgXgXgX{ { { { { { { { gXgXgXgXgXgXgXgXO.O.O.O.| { { { { { { { { gXgXgXgXgXgXgXgXgXgXgXgXgXgXgXgXgXgXgXgXgXgX",
"gXgXgXgXgXgXgXgXgXgXgXgXgXgXgXgXgXgX{ } { { { { { { { { } { { {  . .O.;.,.,.;.*.}  .{ {  .{ { { {  . .{ { { gXgXgXgXgXgXgXgXgXgXgXgXgXgXgXgX",
"gXgXgXgXgXgXgXgXgXgXgXgXgXgXgXgXgX{ { { { } | | O.| } } { } } } O.| *.2.q.q.7.;.O.| ....................{ { { gXgXgXgXgXgXgXgXgXgXgXgXgXgXgX",
"gXgXgXgXgXgXgXgXgXgXgXgXgXgXgXgX{ { {  .{ O.-.>.:.-.O.{  .} +.;.:.:.,.7.q.q.q.<.:.:.:.:.:.:.:.:.:.:.:.;.*.{ { } { { gXgXgXgXgXgXgXgXgXgXgXgX",
"gXgXgXgXgXgXgXgXgXgXgXgXgXgXgX{ { } } } | -.,.q.q.2.=.| } | ;.6.q.q.7.7.q.q.q.0.7.q.7.q.7.q.q.7.0.0.q.6.;.O.{ } { { { gXgXgXgXgXgXgXgXgXgXgX",
"gXgXgXgXgXgXgXgXgXgXgXgXgXgXgX{ } +.-.;.;.>.7.q.q.7.>.:.-.;.,.7.q.q.8.q.q.7.q.q.q.8.q.q.q.q.q.q.8.8.q.q.2.;.+.} { } { gXgXgXgXgXgXgXgXgXgXgX",
"gXgXgXgXgXgXgXgXgXgXgXgXgXgXgX{ | -.2.q.7.7.q.q.q.q.7.7.6.7.q.q.q.q.q.q.q.7.q.q.q.q.q.q.q.q.q.q.q.q.q.q.q.6.;...{ { { gXgXgXgXgXgXgXgXgXgXgX",
"gXgXgXgXgXgXgXgXgXgXgXgXgXgXgX .} ;.7.q.q.q.7.q.q.q.q.9.q.q.q.7.0.q.0.q.q.q.q.q.q.q.9.7.q.q.9.9.q.q.q.q.q.q.>.|  .{ { } gXgXgXgXgXgXgXgXgXgX",
"gXgXgXgXgXgXgXgXgXgXgX{ { { {  .} ;.7.8.q.q.q.q.q.q.q.7.q.q.q.q.q.q.q.q.q.q.q.q.7.q.7.q.q.q.q.7.7.q.q.q.q.7.:.| { { { { } gXgXgXgXgXgXgXgXgX",
"gXgXgXgXgXgXgXgXgXgX .{ } O.*.*.=.>.7.q.q.q.q.7.q.8.a.r.p.q.p.a.t.t.r.8.q.q.q.9.q.p.t.p.8.i.r.r.i.q.7.q.q.q.,.-.O.} { { { { gXgXgXgXgXgXgXgX",
"gXgXgXgXgXgXgXgXgX{  .{ ..;.2.2.2.6.7.q.7.q.q.7.9.p.h.}.t.8.s.|./..Xg.p.q.q.q.9.q.y.}.h.i.p.{.g.r.q.7.q.q.q.6.2.;...{ { } { { gXgXgXgXgXgXgX",
"gXgXgXgXgXgXgXgXO.O.O.O.=.2.q.q.q.q.q.q.q.q.q.q.7.i.h.}.h.t.h./._._.|.s.q.q.q.p.s.h.}.h.i.r.~.~.r.q.0.q.q.q.8.8.2.=...} { { } gXgXgXgXgXgXgX",
"gXgXgXgXgXgXgX} *.>.,.,.2.6.8.8.q.q.q.7.0.0.q.7.q.8.p.t.h.}.oX_.'._.oXs.q.w.w.j. XOXy.d.q.r.~.~.t.9.9.0.8.0.q.q.7.2.;.O.{ { { gXgXgXgXgXgXgX",
"gXgXgXgXgXgXgX} *.2.8.8.q.0.0.q.q.q.q.8.i.i.8.q.q.7.9.i.h.(.Q.R.H.H.5.%.$.$.&.5.5.5.%.1.6.s..XoXy.p.8.q.9.q.q.q.q.q.2.O.{ { { { gXgXgXgXgXgX",
"gXgXgXgXgXgXgX} =.6.q.q.8.q.8.7.q.9.q.r.h.y.i.0.0.9.9.q. X_.J.v z z z e e e e t z t w ( <.s.XX_..X{.a.8.9.8.9.8.q.q.2.*.{ { } { } gXgXgXgXgX",
"gXgXgXgXgXgX .} *.6.q.q.q.q.q.8.8.8.8.u./.}.r.8.8.i.8.p.4.R.! 8 , 3 2 2 3 8 2 2 2 1 6 G #.4.4.Q.`.~.y.i.8.0.8.9.8.q.2.+.{ { { { { { gXgXgXgX",
"gXgXgXgXgX{  .} *.2.q.q.q.q.8.s.h.g.g.|././.{.h.h.h.h.g.` W v n n T k.x.v.c.c.k.k.I n k G G b ~ R.+XXXh.a.8.9.8.q.q.2.+.{ { { { } { gXgXgXgX",
"gXgXgXgX} { { } =.6.q.q.q.q.p.g./././.`._./.).(././.`.R.W 8 h n.U.=X6XyXdXsXyXeX;X*XZ.I p > , f / `.)./.y.i.0.8.q.0.<.*.} { { { { { gXgXgXgX",
"gXgXgXgX{ { { { =.2.q.q.8.s.h.~._._._._._.(._._.'.`.[ ! z p Y P.;X5XyXaXaXaXaXaXiXeX2XS.T n h g W / H./.{.i.9.q.q.q.,.O.{ { { } } gXgXgXgXgX",
"gXgXgXgX{ } { } *.2.q.q.p.{././._._._._.(.(.)._._.R.A 8 s N V.1X5X5XrXpXaXaXaXaXaXsXsXeX1XY.Z.l.l 8 / ^.j.i.9.q.q.8.2.*.{ { { { gXgXgXgXgXgX",
"gXgXgXgX{ { { } =.2.q.q.p.|._.(.(.).(.(._._./.^.J.~ z i m x.P.4X5X5XrXpXaXaXaXaXaXaXaXaXiXrX;Xn.y < Q {.j.q.9.q.q.q.6.;.*.} } gXgXgXgXgXgXgX",
"gXgXgXgX{ }  .} =.2.q.q.p.|._.(.(.(.).)._._._.] v 8 h B x.B.&X4X5X5XrXpXaXaXaXaXaXaXaXaXsXiXrXL.l 4 L f.d.q.q.8.q.q.7.6.>.*.} gXgXgXgXgXgXgX",
"gXgXgXgXgX} { } =.2.q.q.p.h.|./.).@X@X+X_.+X@XJ.f % g c.Z.P.=X6X5X5XrXiXpXaXaXaXaXaXaXaXaXaXrX&XR f L #.1.7.q.q.q.q.7.6.>.*.} gXgXgXgXgXgXgX",
"gXgXgXgXgXgX .} =.2.8.q.8.i.t.|.).9X0X9X+X@X0X$Xh , M V.*X-X6X5X5X5X5XrXiXaXaXaXaXaXaXaXaXpXrX4XL.T k e ( 6.q.q.8.q.6.;.+...gXgXgXgXgXgXgXgX",
"gXgXgXgXgXgXgX} *.2.q.q.q.9.i.g.).9XuX8X#X8XsX:Xg 1 M A.&X-X4X-X6X6X4XY.P.>X<X<X,XwXtXsXpXyX&XL.n.l.y < J <.w.q.0.6.:.O.{ gXgXgXgXgXgXgXgXgX",
"gXgXgXgXgXgXgX} =.6.q.q.0.9.i.g.).@X9X8X0XuXaX:Xg 1 m c.S.U.*X*X-X6XY.n i p a a a z.%X3XeX*XB y 3 & # > H 1.w.q.2.-.+.} { gXgXgXgXgXgXgXgXgX",
"gXgXgXgXgXgXgX} *.<.q.q.q.q.i.u.~./.).9XuXaXaX:Xg > f U c.C.C.C.U.-XL.p X .   . X a C.;X4Xm.&   . . X $ H <.w.7.>.O.{ { { gXgXgXgXgXgXgXgXgX",
"gXgXgXgXgXgXgXgXO.=.>.6.8.q.8.a.y.!.`.].9X0XaX:Xg > 5 n T c.B.C.P.U.L.x.h X   O = S P.5X5Xm.$   - = - , H e.6.;.+.} { { gXgXgXgXgXgXgXgXgXgX",
"gXgXgXgXgXgXgXgXgX} +.,.q.q.q.q.i.h./.(._.9XuX<XM < 4 j P ^ c.V.Z.C.U.=XL.l O = Z K.3X5X;Xn.3 * C C ; < J 1.3...{ { } gXgXgXgXgXgXgXgXgXgXgX",
"gXgXgXgXgXgXgXgXgX{ | =.>.2.0.9.q.u./.(._.#XuXtXN.v 9 6 i c U c.B.C.*X;X-XB.z.G.K.fXiX&Xl.B N b.G.G.V , F +.*.} { { gXgXgXgXgXgXgXgXgXgXgXgX",
"gXgXgXgXgXgXgXgXgX{ } | +.,.q.q.8.h./.(._.#XuXuX[.] x , 6 j P U c.C.P.-XeXwXwXdXdXaXsXv.u u S.tX2XP.c < F X.} } { gXgXgXgXgXgXgXgXgXgXgXgXgX",
"gXgXgXgXgXgXgXgXgX}  . .O.,.q.q.8.t.g.~.`.@X8X8X#XQ./ x 9 5 d P l.n.*XrXeXD.F.tXaXtXA.z.m B b.A.m.x.R G K O.*.}  .gXgXgXgXgXgXgXgXgXgXgXgXgX",
"gXgXgXgXgXgXgXgXgXgXgX{ ..>.q.q.q.q.a.h./.'.].'.'.`.Q.] v 6 6 q I n.%XyX,XB u A.tXv.u m D.A.p # , 9 K %.<.<.;.| { { { gXgXgXgXgXgXgXgXgXgXgX",
"gXgXgXgXgXgXgXgXgXgXgX{ +.>.8.q.q.7.7.r.{.}.}.~./.'.oX^.' w 7 7 P Z.%X%Xb.% . m A.a . u A.A.t : : G o.i.w.q.2.=.O.} { gXgXgXgXgXgXgXgXgXgXgX",
"gXgXgXgXgXgXgXgXgXgXgX{ ..,.q.8.q.7.q.8.p.p.a.y.|._.'./.4.o.J : P U.P.m # o   # % X . @ p L ( o.o.&.1.i.q.q.7.2.-...{ gXgXgXgXgXgXgXgXgXgXgX",
"gXgXgXgXgXgXgXgXgXgXgX} ..;.2.7.q.q.q.q.q.7.7.i.h.|.(.!.4.&.L f P m.T @               . o 4 ( %.2.q.i.2.q.q.q.q.,.O.{ gXgXgXgXgXgXgXgXgXgXgX",
"gXgXgXgXgXgXgXgXgXgXgX{ } O.-.,.q.q.q.q.q.9.q.8.p.y..XQ./ G R m.k.s # .                   o 9 H $.q.i.q.0.8.q.q.,.O. .{ { gXgXgXgXgXgXgXgXgX",
"gXgXgXgXgXgXgXgXgXgXgX{ { { | ;.2.9.q.q.q.q.q.q.8.t. XW.A 1 R Y.m.u @ # X .           o + @ @ 9 o.7.q.q.8.0.8.q.,.O.{ { { gXgXgXgXgXgXgXgXgX",
"gXgXgXgXgXgXgXgXgXgXgXgX{ { } O.-.<.q.q.q.q.7.i.y.}.oXW.v & n P.%XB.v.v.N %           % z.N 3 < _ q.q.q.q.q.q.8.,.*. .{ } gXgXgXgXgXgXgXgXgX",
"gXgXgXgXgXgXgXgXgXgXgXgXgX{ { { | -.2.q.q.7.q.p. X/.oXW.A 8 l n.%X,XdXsX>Xm X . X . X m >XD.h 0 ) q.q.q.q.q.q.0.:.O.{ { { gXgXgXgXgXgXgXgXgX",
"gXgXgXgXgXgXgXgXgXgXgXgXgXgX{ { } O.-.,.6.q.q.i.y.h.h.4.` ! v n B x.F.eXyXF.z.z.z.l.I l.c.^ L ( $.q.q.9.q.q.2.:.*.| { { { gXgXgXgXgXgXgXgXgX",
"gXgXgXgXgXgXgXgXgXgXgXgXgXgXgX{ { } | -.6.q.q.q.8.8.8.i.h.R.~ 8 $ 1 M T.7XeXtXtXwX2X&Xx.s w o.e.0.q.8.8.8.0.:.O.} { { { } gXgXgXgXgXgXgXgXgX",
"gXgXgXgXgXgXgXgXgXgXgXgXgXgXgXgX}  .{ =.6.8.q.q.q.9.9.8.j.h.` W x w L R n.B.S.S.S.V.m.R r K 1.w.d.q.q.0.2.:.*.}  .{ { } gXgXgXgXgXgXgXgXgXgX",
"gXgXgXgXgXgXgXgXgXgXgXgXgXgXgXgXgX .} =.6.q.q.q.q.q.q.q.q.p.4.R.5.%.) w 2 2 u i 8 2 5 L #.<.e.q.9.8.q.0.:.O.} } { } { gXgXgXgXgXgXgXgXgXgXgX",
"gXgXgXgXgXgXgXgXgXgXgXgXgXgXgXgXgXgX} =.6.q.q.q.q.q.q.q.9.q.s. Xj.d.$.H q 0 q q q q e ( 1.w.w.7.<.,.,.>.*.} { { { { { gXgXgXgXgXgXgXgXgXgXgX",
"gXgXgXgXgXgXgXgXgXgXgXgXgXgXgXgXgXgX} =.7.q.q.q.q.6.q.q.q.q.i.p.d.d.6.$.#.#.#.#.#.#.#.$.7.q.q.2.-.O.O.O.} { { { } { } gXgXgXgXgXgXgXgXgXgXgX",
"gXgXgXgXgXgXgXgXgXgXgXgXgXgXgXgXgX{ } +.>.6.q.q.8.q.q.q.q.q.q.q.0.0.8.q.w.q.q.q.w.q.q.q.8.q.6.:.O.{  .{ { { { } { { { gXgXgXgXgXgXgXgXgXgXgX",
"gXgXgXgXgXgXgXgXgXgXgXgXgXgXgXgXgX .} | +.;.6.q.q.8.q.q.q.q.7.q.0.8.q.q.q.w.q.q.q.q.w.q.q.2.-.O.} { { { { } { gXgXgXgXgXgXgXgXgXgXgXgXgXgXgX",
"gXgXgXgXgXgXgXgXgXgXgXgXgXgXgXgXgXgX} { } +.>.6.6.2.2.6.7.q.q.q.q.q.q.q.q.q.q.q.q.q.q.7.6.:...{ { { { { { } gXgXgXgXgXgXgXgXgXgXgXgXgXgXgXgX",
"gXgXgXgXgXgXgXgXgXgXgXgXgXgXgXgXgXgXgX{  .} +.=.=.=.+.-.,.q.q.q.q.q.q.q.q.q.q.q.q.q.q.2.-.O.| { { gXgXgXgXgXgXgXgXgXgXgXgXgXgXgXgXgXgXgXgXgX",
"gXgXgXgXgXgXgXgXgXgXgXgXgXgXgXgXgXgXgXgX} } } } } } } | -.6.7.7.6.6.7.7.q.q.q.q.q.q.6.;...{ { } gXgXgXgXgXgXgXgXgXgXgXgXgXgXgXgXgXgXgXgXgXgX",
"gXgXgXgXgXgXgXgXgXgXgXgXgXgXgXgXgXgXgXgXgX .}  .}  . .} O.-.-.-.-.-.>.7.q.q.q.q.q.2.;.+.} { { gXgXgXgXgXgXgXgXgXgXgXgXgXgXgXgXgXgXgXgXgXgXgX",
"gXgXgXgXgXgXgXgXgXgXgXgXgXgXgXgXgXgXgXgXgXgX{ } { { } { } } } } } } *.,.0.7.7.q.6.;.O.{ { { gXgXgXgXgXgXgXgXgXgXgXgXgXgXgXgXgXgXgXgXgXgXgXgX",
"gXgXgXgXgXgXgXgXgXgXgXgXgXgXgXgXgXgXgXgXgXgXgX{ { } { { { { { { {  .| =.:.:.;.;.;.+.{ { { gXgXgXgXgXgXgXgXgXgXgXgXgXgXgXgXgXgXgXgXgXgXgXgXgX",
"gXgXgXgXgXgXgXgXgXgXgXgXgXgXgXgXgXgXgXgXgXgXgXgXgXgXgXgX{ } { { { } } | | O.| O.O.} { { gXgXgXgXgXgXgXgXgXgXgXgXgXgXgXgXgXgXgXgXgXgXgXgXgXgX",
"gXgXgXgXgXgXgXgXgXgXgXgXgXgXgXgXgXgXgXgXgXgXgXgXgXgXgXgXgX{ { } { { { { {  . . . .{ { gXgXgXgXgXgXgXgXgXgXgXgXgXgXgXgXgXgXgXgXgXgXgXgXgXgXgX",
"gXgXgXgXgXgXgXgXgXgXgXgXgXgXgXgXgXgXgXgXgXgXgXgXgXgXgXgXgXgX{ { { { } { { gXgXgXgXgXgXgXgXgXgXgXgXgXgXgXgXgXgXgXgXgXgXgXgXgXgXgXgXgXgXgXgXgX",
"gXgXgXgXgXgXgXgXgXgXgXgXgXgXgXgXgXgXgXgXgXgXgXgXgXgXgXgXgXgXgX} } { { { { gXgXgXgXgXgXgXgXgXgXgXgXgXgXgXgXgXgXgXgXgXgXgXgXgXgXgXgXgXgXgXgXgX"
};
