/* XPM */
static char *result[] = {
/* columns rows colors chars-per-pixel */
"70 70 221 2 ",
"   c #010101",
".  c #0C0808",
"X  c #180400",
"o  c #18191A",
"O  c #0E041A",
"+  c #2F1A0F",
"@  c #1A1D24",
"#  c #192023",
"$  c #252627",
"%  c #292A39",
"&  c #2E3035",
"*  c #353534",
"=  c #393737",
"-  c #33293F",
";  c #511D00",
":  c #5F2F13",
">  c #634637",
",  c #342A45",
"<  c #362B4B",
"1  c #39294A",
"2  c #363347",
"3  c #3B2B53",
"4  c #372D59",
"5  c #3A3859",
"6  c #2E304C",
"7  c #3F3E6B",
"8  c #391B4F",
"9  c #42295A",
"0  c #432D54",
"q  c #483853",
"w  c #4B2C69",
"e  c #4C3665",
"r  c #553968",
"t  c #593474",
"y  c #3B4151",
"u  c #444343",
"i  c #474B5B",
"p  c #5B405F",
"a  c #4E535E",
"s  c #545459",
"d  c #69605C",
"f  c #594668",
"g  c #4D5563",
"h  c #575965",
"j  c #585777",
"k  c #584571",
"l  c #615567",
"z  c #625C7E",
"x  c #6F4B72",
"c  c #5C6369",
"v  c #596375",
"b  c #656B79",
"n  c #76627E",
"m  c #747579",
"M  c #706C6E",
"N  c #944B1B",
"B  c #8F5935",
"V  c #B16F42",
"C  c #CB7D4A",
"Z  c #B28A77",
"A  c #DD8D58",
"S  c #6D368D",
"D  c #6B3989",
"F  c #703790",
"G  c #743B94",
"H  c #7B3C9C",
"J  c #6C3495",
"K  c #7335A7",
"L  c #79469A",
"P  c #71498B",
"I  c #656588",
"U  c #746484",
"Y  c #6C7886",
"T  c #737383",
"R  c #737888",
"E  c #737793",
"W  c #7D40A1",
"Q  c #873FB0",
"!  c #8A5C84",
"~  c #885B84",
"^  c #8E5697",
"/  c #8E718D",
"(  c #8745A9",
")  c #9855A5",
"_  c #8F43B4",
"`  c #8F48B4",
"'  c #9246B7",
"]  c #8C55AA",
"[  c #A95FB2",
"{  c #B572A5",
"}  c #C47BB2",
"|  c #C77AB8",
" . c #C06FBE",
".. c #863AD5",
"X. c #8A3BD6",
"o. c #8E3DD9",
"O. c #8137D2",
"+. c #913FDB",
"@. c #8C3ECA",
"#. c #9D4AC5",
"$. c #9F4CC8",
"%. c #9541DD",
"&. c #9A43DF",
"*. c #9C44D4",
"=. c #A44CCC",
"-. c #A04AC7",
";. c #A84CD7",
":. c #B252DD",
">. c #B959DD",
",. c #AF51DA",
"<. c #B160C2",
"1. c #9D45E1",
"2. c #A147E3",
"3. c #A549E5",
"4. c #A94AE6",
"5. c #AD4CE9",
"6. c #A648E9",
"7. c #B24EEC",
"8. c #B551EE",
"9. c #BA54EC",
"0. c #B854E4",
"q. c #BD54F2",
"w. c #B751F2",
"e. c #D373DB",
"r. c #C359ED",
"t. c #C256F4",
"y. c #C659F6",
"u. c #CA5CF7",
"i. c #C657F9",
"p. c #C758F9",
"a. c #CA5AF9",
"s. c #D15DFF",
"d. c #D76DEF",
"f. c #D96FEE",
"g. c #D167EF",
"h. c #DC74EC",
"j. c #DC76E6",
"k. c #CE61F4",
"l. c #D164F4",
"z. c #D569F1",
"x. c #D86AF7",
"c. c #CF69E7",
"v. c #E27AE9",
"b. c #E57DEB",
"n. c #E476F7",
"m. c #7A818B",
"M. c #7D8A9C",
"N. c #7F8BA1",
"B. c #868889",
"V. c #898B95",
"C. c #838D9B",
"Z. c #808A97",
"A. c #989797",
"S. c #8F969F",
"D. c #8B9AAA",
"F. c #949BA3",
"G. c #9299A6",
"H. c #8D98B4",
"J. c #929DB7",
"K. c #858EA0",
"L. c #98A4AE",
"P. c #9AAAB4",
"I. c #97A5B7",
"U. c #A7A7A7",
"Y. c #A6ADB6",
"T. c #A8B1BA",
"R. c #B8B7BA",
"E. c #BCB3AC",
"W. c #D0B5A6",
"Q. c #E7BAA3",
"!. c #EFCEB7",
"~. c #A1ACC4",
"^. c #A4B4C3",
"/. c #ACBCCD",
"(. c #A7B6C9",
"). c #B9BCC1",
"_. c #ACBAD7",
"`. c #DE89C8",
"'. c #E68ECE",
"]. c #E387D6",
"[. c #F08FDF",
"{. c #F494DC",
"}. c #F798DB",
"|. c #FA9BDA",
" X c #F396D6",
".X c #FFA0DC",
"XX c #E782E6",
"oX c #EA85E4",
"OX c #EC8AE1",
"+X c #ED84EC",
"@X c #EF88E9",
"#X c #F895E0",
"$X c #B6C4DA",
"%X c #BBC0C2",
"&X c #BDCDE9",
"*X c #BACAE4",
"=X c #BED1EC",
"-X c #C8C8C8",
";X c #D5D6D6",
":X c #CACFD8",
">X c #FEE9DE",
",X c #C4D3ED",
"<X c #C9D6E7",
"1X c #D7DAE4",
"2X c #C6D6F4",
"3X c #CBDBFC",
"4X c #D0DDF5",
"5X c #DCE3EC",
"6X c #D5E2FB",
"7X c #D9E5FE",
"8X c #DCE7FB",
"9X c #E5E5E7",
"0X c #E1EDFF",
"qX c #E9ECF4",
"wX c #EBF2FC",
"eX c #F1F1F1",
"rX c #F1F6FF",
"tX c #F6FAFE",
"yX c #FEFEFE",
"uX c #F0EFEE",
"iX c None",
/* pixels */
"iXiXiXiXiXiXiXiXiXiXiXiXiXiXiXiXiXiXiXiXiXiXiXiXiXiXiXiXiXiXiXiXiXiXiXiXiXiXiXiXiXiXiXiXiXiXiXiXiXiXiXiXiXiXiXiXiXiXiXiXiXiXiXiXiXiXiXiXiXiX",
"iXiXiXiXiXiXiXiXiXiXiXiXiXiXiXiXiXiXiXiXiXiXiXiXiXiXiXiXiXiXiXiXiXiXiXiXiXiXiXiXiXiXiXiXiXiXiXiXiXiXiXiXiXiXiXiXiXiXiXiXiXiXiXiXiXiXiXiXiXiX",
"iXiXiXiXiXiXiXiXiXiXiXiXiXiXiXiXiXiXiXiXiXiXiXiXiXiXiXiXiXiXiXiXiXiXiXiXiXiXiXiXiXiXiXiXiXiXiXiXiXiXiXiXiXiXiXiXiXiXiXiXiXiXiXiXiXiXiXiXiXiX",
"iXiXiXiXiXiXiXiXiXiXiXiXiXiXiXiXiXiXiXiXiXiXiXiXiXiXiXiXiXiXiXiXiXiXiXiXiXiXiXiXiXiXiXiXiXiXiXiXiXiXiXiXiXiXiXiXiXiXiXiXiXiXiXiXiXiXiXiXiXiX",
"iXiXiXiXiXiXiXiXiXiXiXiXiXiXiXiXiXiXiXiXiXiXiXiXiXiXiXiXiXiXiXiXiXiXiXiXiXiXiXiX..X...iXiXiXiXiXiXiXiXiXiXiXiXiXiXiXiXiXiXiXiXiXiXiXiXiXiXiX",
"iXiXiXiXiXiXiXiXiXiXiXiXiXiXiXiXiXiXiXiXiXiXiXiXiXiXiXiXiXiXiXiXiXiXiXiXiXiXiXX.........iXiXiXiXiXiXiXiXiXiXiXiXiXiXiXiXiXiXiXiXiXiXiXiXiXiX",
"iXiXiXiXiXiXiXiXiXiXiXiXiXiXiXiXiXiXiXiXiXiXiXiXiXiXiXiXiXiXiXiXiXiXiXiXiXiXO...........X.iXiXiXiXiXiXiXiXiXiXiXiXiXiXiXiXiXiXiXiXiXiXiXiXiX",
"iXiXiXiXiXiXiXiXiXiXiXiXiXiXiXiXiXiXiXiXiXiXiXiXiXiXiXiXiXiXiXiXiXiXiXX.....X.X...X.X...X.......iXiXiXiXiXiXiXiXiXiXiXiXiXiXiXiXiXiXiXiXiXiX",
"iXiXiXiXiXiXiXiXiXiXiXiXiXiXiXiXiXiXiXiXiXiXiXiXiXiXiXiXiXiXiXiXiXiXO...X.%.1.2.1.%.X.....X...X.X.iXiXiXiXiXiXiXiXiXiXiXiXiXiXiXiXiXiXiXiXiX",
"iXiXiXiXiXiXiXiXiXiXiXiXiXiXiXiXiXiXiXiXiXiX....X.......iXiXiXiXiX......+.5.q.y.q.2.o.O.............iXiXiXiXiXiXiXiXiXiXiXiXiXiXiXiXiXiXiXiX",
"iXiXiXiXiXiXiXiXiXiXiXiXiXiXiXiXiXiXiXiXiXX...............iXiXiX%.%.&.&.3.9.a.s.y.8.1.+.......X.....iXiXiXiXiXiXiXiXiXiXiXiXiXiXiXiXiXiXiXiX",
"iXiXiXiXiXiXiXiXiXiXiXiXiXiXiXiXiXiXiXiX......X.................&.8.q.8.q.y.u.a.a.y.8.3.o.........X.iXiXiXiXiXiXiXiXiXiXiXiXiXiXiXiXiXiXiXiX",
"iXiXiXiXiXiXiXiXiXiXiXiXiXiXiXiXiXiXiXiX......X.+.%.%.%.%.%.%.%.3.q.a.a.a.a.y.a.a.a.a.8.1.+.........iXiXiXiXiXiXiXiXiXiXiXiXiXiXiXiXiXiXiXiX",
"iXiXiXiXiXiXiXiXiXiXiXiXiXiXiXiXiXiXiXiX..O...+.3.8.8.7.7.7.7.7.q.y.a.a.a.a.a.a.a.a.a.y.8.3.+.....iXiXiXiXiXiXiXiXiXiXiXiXiXiXiXiXiXiXiXiXiX",
"iXiXiXiXiXiXiXiXiXiXiXiXiXiXiXiXiXiXiXiX+.o.+.1.9.a.a.y.a.a.a.a.y.a.a.a.u.u.a.a.a.a.a.a.a.8.&...iXiXiXiXiXiXiXiXiXiXiXiXiXiXiXiXiXiXiXiXiXiX",
"iXiXiXiXiXiXiXiXiXiXiXiXiXiXiXiXiXiXX.&.5.5.5.8.y.a.a.a.a.a.i.a.a.a.y.a.a.a.a.y.y.a.u.a.a.8.%...O.O...O.......X.iXiXiXiXiXiXiXiXiXiXiXiXiXiX",
"iXiXiXiXiXiXiXiXiXiXiXiXiXiXiXiXiXiXX.2.q.u.y.a.y.a.a.a.u.l.u.l.u.u.a.i.a.a.a.a.a.a.a.a.a.8.1.X.o.o.o.o.X...X.....iXiXiXiXiXiXiXiXiXiXiXiXiX",
"iXiXiXiXiXiXiXiXiXiXiXiXiXiXiXiXiXO.X.2.t.a.a.a.a.a.i.a.z.v.b.v.f.u.i.a.y.a.y.a.a.y.a.a.a.q.7.4.3.3.4.2.%.X.........iXiXiXiXiXiXiXiXiXiXiXiX",
"iXiXiXiXiXiXiXiXiXiXiXiXiXiXiXiXiX..X.2.t.a.a.u.a.a.y.k.v.{.}.{.XXz.i.a.a.a.a.a.y.u.a.a.a.y.a.y.y.y.y.q.4.o.....X...X.iXiXiXiXiXiXiXiXiXiXiX",
"iXiXiXiXiXiXiXiXiXiXiXiXiXiXiXiXiXiXX.2.t.a.a.a.y.u.z.v.oX}.|.|.@Xx.a.s.a.s.s.s.a.s.s.a.a.a.a.a.a.a.a.a.8.3.%.X.......iXiXiXiXiXiXiXiXiXiXiX",
"iXiXiXiXiXiXiXiXiXiXiXiXiXiXiXiXiXO.X.2.t.a.a.a.i.l.v.[. X|.|.}.b.k.a.a.a.a.a.a.a.a.y.a.u.a.a.a.a.a.u.a.y.t.4.+.......iXiXiXiXiXiXiXiXiXiXiX",
"iXiXiXiXiXiXiXiXiXiXiXiXiXiXiXiXiXO.X.2.t.a.a.y.i.l.oX|.|. X'.{ [ ) Q Q ' Q _ _ ' _ ' ;.t.s.a.a.a.a.a.a.a.a.5.o.O.....iXiXiXiXiXiXiXiXiXiXiX",
"iXiXiXiXiXiXiXiXiXiXiXiXiX......X...X.2.t.a.a.a.a.l.XX|..X X{ f 0 9 9 9 9 9 9 9 0 3 9 H 0.a.a.u.a.a.a.a.a.a.7.+.......iXiXiXiXiXiXiXiXiXiXiX",
"iXiXiXiXiXiXiXiXiXiXiXiXiX........O.X.1.7.t.y.a.a.u.v.oX`.} ~ i 5 i i g g s g i i 5 i k ` =.=.;.9.a.a.a.a.y.8.1.%.%.%.iXiXiXiXiXiXiXiXiXiXiX",
"iXiXiXiXiXiXiXiXiXX...................X.&.4.q.a.i.a.x.g.) k l Y C.L.~.).).%X).^.I.K.m.v r w w D ;.a.s.a.a.y.t.9.8.8.5.%...iXiXiXiXiXiXiXiXiX",
"iXiXiXiXiXiXiXiXiX......X.o.+.+.+.+.+.+.+.3.q.a.l.l.r.=.D q b L.$X2X8XrXyXyXyXwX6X<X/.M.g 2 6 e ( ,.r.a.a.a.y.a.u.a.q.2.+.iXiXiXiXiXiXiXiXiX",
"iXiXiXiXiXiXiXiXiX......o.2.5.8.5.7.7.5.7.7.t.x.b.e.) t i h M.$X2X3X8XtXyXyXyXtXrXqX5X$XJ.M.Y b k G #.r.s.y.a.a.a.a.y.8.5.&...iXiXiXiXiXiXiX",
"iXiXiXiXiXiXiXiXiX..X.X.&.8.a.a.a.a.y.y.y.i.a.g.].| x 2 a / Y.,X3X3X7XrXyXyXyXyXyXyXyXwX6X&X/.C.i 0 ( u.s.a.a.a.a.a.a.a.q.2.o.X.iXiXiXiXiXiX",
"iXiXiXiXiXiXiXiX....+.2.8.t.u.a.a.a.a.a.a.a.a.0.[ n l s m G.(.2X3X3X7XtXyXyXyXyXyXyXyXyXrX8X2XJ.i , ^ v.x.a.y.a.a.a.a.a.y.8.4.&.X.iXiXiXiXiX",
"iXiXiXiXiXiXiX....X.&.8.y.y.a.a.a.a.a.y.a.s.a.;.t 1 s / S.P.$X2X3X3X7XwXyXyXyXyXyXyXyXyXyXrX7X(.j 2 ^ ].v.g.a.a.a.a.a.u.y.a.q.3.X...iXiXiXiX",
"iXiXiXiXiXiX..X...X.1.q.a.s.y.u.a.p.a.l.h.n.v.[ e - c F.^.$X=X3X3X3X6X0XtXyXyXyXyXyXyXyXyXtX8X&XN.v B [ e.e.x.a.a.y.a.y.a.a.y.3.X.....iXiXiX",
"iXiXiXiXiXiXiX..O...&.8.a.a.a.a.y.a.u.h.OX#X#X} p 2 b P.$X,X2X3X3X3X4X3X6XwXyXyXyXyXyXyXyXwX6X&X(.M.j i ! ].b.l.a.a.a.a.a.a.y.3.X...X...iXiX",
"iXiXiXiXiXiXiX....X.+.3.8.t.y.x.f.f.f.XX#X.X.X} f 2 b G.$X*X=X*X2X3X*XJ.K.G.U.U.U.%X5XqXwX<XP.C.R v 2 % ! '.+Xl.p.p.a.a.a.a.a.3.X.......iXiX",
"iXiXiXiXiXiXiXiXiX..o.o.2.q.u.v.OX[.[.{.{..X|.} r 2 h Z.L.T.^.(.$X2X^.g $ $ & $ = M P.<X4XT.g # # # # , ! '.+Xx.p.a.a.a.a.a.t.3.X.....X.iXiX",
"iXiXiXiXiXiXiXiX........+.7.l.XX}..X|.|.}..X.X} p & i T Z.F.L.P./.*XI.a o     X + d P.=X2XJ.%   X + o , ! '.+Xl.p.a.a.a.y.t.7.2.X.....iXiXiX",
"iXiXiXiXiXiXiX....X.....+.7.l.XX}.|.|.}.}.|.|.{ r % 5 j T V.F.P.^.(.P.M.c @   ; N Z $X3X3XJ.% X : N : - ! '.+Xu.p.i.a.a.t.4.&.o.X...iXiXiXiX",
"iXiXiXiXiXiXiXX.........+.7.l.b.}.|.|.|.|.|.|.`.x 0 4 7 j T Z.G.P.P.T.(.D.g = B A Q.1X2X_.M.y > V C > q V XX+Xl.a.a.a.s.t.2.X...X...iXiXiXiX",
"iXiXiXiXiXiXiX....X...O.+.7.l.XX|.|.|.|.|.|.|.].<.Q w , 7 j T Z.G.P.^.$X$XI.D.W.!.>XuXT.c h B.E.!.Q.d 2 U ].@Xl.i.a.u.a.t.1...O.....iXiXiXiX",
"iXiXiXiXiXiXiX....X.X.o.&.w.l.v.{.{. X}.}.}.{.oXx.,.D 3 4 7 j U Z.L./.=X3X3X3XwXyXyXtXU.u s -XyXyX;XT 2 ~ ].b.l.a.t.t.t.8.&.X...X.iXiXiXiXiX",
"iXiXiXiXiXiXiXiX....+.2.7.t.a.z.h.OX{.|.}.[.v.x.x.q.$.G w 6 5 j R D.(.=X6XwXtXyXyXyXyX;XU.U.eXyXyX<XY , F e.x.s.q.5.2.3.2.+.....iXiXiXiXiXiX",
"iXiXiXiXiXiXiXiXiXX.%.8.y.y.u.u.l.v.{.|.|.].x.u.a.a.y.:.G 1 6 7 I D.$X=X6XqXuXeXyXtXuXuXeXeXeXqX6X_.I 3 H 9.a.i.7.+.X.X.X.....iXiXiXiXiXiXiX",
"iXiXiXiXiXiXiXiXiX..+.2.7.t.u.d.h.[.{.|.|.{.v.d.k.a.s.y.-.G w 7 I I.=X8X5XY.A.;XtX-XA.R.tXqXU.m.E E I L #.q.i.5.1.o.O.O.....iXiXiXiXiXiXiXiX",
"iXiXiXiXiXiXiXiXiX..X.X.&.w.u.v.{.|. X}.|.|.|.oXz.a.a.a.y.0.F 3 v (.7XrX-Xd * A.9XB.* M ;XW.s o $ e ( 0.y.t.5.1.X.X...iXiXiXiXiXiXiXiXiXiXiX",
"iXiXiXiXiXiXiXiXiX....O.+.7.l.XX|.|.}.|.|.|.|.[.d.a.a.a.k.a.H 1 v $X,XT.M $ . s B.s . * B.M $ O 8 F =.u.y.8.1.X.....X.iXiXiXiXiXiXiXiXiXiXiX",
"iXiXiXiXiXiXiXiXiX......+.7.l.XX{.|.|.}.|.}.|.OXx.y.y.y.s.t.H 1 v _.(.h o .   o $ o   . $ $ @ 8 ( ,.r.t.5.1.X.........iXiXiXiXiXiXiXiXiXiXiX",
"iXiXiXiXiXiXiXiX....o.%.3.q.u.h.OX{.{.{.[.].oXv.z.u.a.a.s.9.H 1 v _._.b u u u o           o i U ] #.:.7.1.X.O.X...X...iXiXiXiXiXiXiXiXiXiXiX",
"iXiXiXiXiXiXiX......%.5.q.p.u.l.d.oX{.OXh.l.z.l.u.a.a.a.s.r.H 1 v _.3X:X-X-XU.s           = U.R.U t K +.+.X.......X.X.iXiXiXiXiXiXiXiXiXiXiX",
"iXiXiXiXiXiXiXX.....1.q.a.a.a.t.u.h.oXv.u.p.a.a.a.y.a.a.a.t._ t I H.$X5XtXyXqXV.u * * & & c Y.R.U w J O.X.....X.......iXiXiXiXiXiXiXiXiXiXiX",
"iXiXiXiXiXiXiX......1.q.a.a.a.a.a.l.d.l.u.y.a.a.a.a.a.i.a.y.:.' L j Y T.<X0X0X:XR.E.E.Y.J.M.b n ( ' @...X.........iXiXiXiXiXiXiXiXiXiXiXiXiX",
"iXiXiXiXiXiXiXX.....%.7.y.y.a.a.a.y.a.a.a.a.y.a.a.y.u.l.u.a.s.y.#.t i Y L./.$X<X1X9X1X<X$XH.j t ' 8.2.....X...X.X.iXiXiXiXiXiXiXiXiXiXiXiXiX",
"iXiXiXiXiXiXiX......o.&.5.q.a.a.a.a.a.y.y.a.a.a.a.u.h.v.d.u.s.a.4._ P k g v b R m.m./ m.Y I L _ *.1.1.....iXiXiXiXiXiXiXiXiXiXiXiXiXiXiXiXiX",
"iXiXiXiXiXiXiX....X...X.%.7.y.a.a.y.a.a.a.a.y.a.i.z.XX[.v.u.i.a.y.t.#.t , , 1 2 2 2 1 , 3 t $.8.1.X.....iXiXiXiXiXiXiXiXiXiXiXiXiXiXiXiXiXiX",
"iXiXiXiXiXiXiXiX........o.&.5.q.a.a.a.a.a.a.y.a.a.l.oX{.v.u.i.a.s.s.0.( F S F F S F S S F Q ;.6.1.O.X.iXiXiXiXiXiXiXiXiXiXiXiXiXiXiXiXiXiXiX",
"iXiXiXiXiXiXiXiXiX....X...X.%.7.y.y.a.a.y.a.a.a.i.l.XX[.v.k.a.y.u.y.t.r.9.9.9.0.0.0.9.9.0.4.%...X...iXiXiXiXiXiXiXiXiXiXiXiXiXiXiXiXiXiXiXiX",
"iXiXiXiXiXiXiXiXiXiX........X.&.7.q.a.a.a.a.y.a.a.l.h.v.d.u.a.a.a.a.a.s.s.s.a.q.w.i.a.a.w.6.o.....X.iXiXiXiXiXiXiXiXiXiXiXiXiXiXiXiXiXiXiXiX",
"iXiXiXiXiXiXiXiXiXiXiXiXiX..X.X.+.7.y.a.y.a.a.a.y.a.u.l.u.y.a.a.a.a.a.a.a.a.p.6.%.5.t.q.1.o.X...iXiXiXiXiXiXiXiXiXiXiXiXiXiXiXiXiXiXiXiXiXiX",
"iXiXiXiXiXiXiXiXiXiXiXiXiXiX....X.&.7.t.y.a.a.a.y.a.a.a.y.a.y.a.a.a.y.a.y.t.5.&.X.1.5.3.o.......iXiXiXiXiXiXiXiXiXiXiXiXiXiXiXiXiXiXiXiXiXiX",
"iXiXiXiXiXiXiXiXiXiXiXiXiXiXiX....o.%.4.t.a.y.a.a.a.a.a.a.a.a.a.a.y.a.a.t.4.+.X...o.%.o.........iXiXiXiXiXiXiXiXiXiXiXiXiXiXiXiXiXiXiXiXiXiX",
"iXiXiXiXiXiXiXiXiXiXiXiXiXiXiX........&.8.t.y.a.a.a.a.y.a.a.a.a.a.a.y.t.7.%.....X.............X.iXiXiXiXiXiXiXiXiXiXiXiXiXiXiXiXiXiXiXiXiXiX",
"iXiXiXiXiXiXiXiXiXiXiXiXiXiXiX......X.X.&.4.t.a.y.a.a.a.y.a.u.a.a.a.t.4.%.o.............iXiXiXiXiXiXiXiXiXiXiXiXiXiXiXiXiXiXiXiXiXiXiXiXiXiX",
"iXiXiXiXiXiXiXiXiXiXiXiXiXiXiXiX....X...X.1.q.a.a.a.a.a.a.a.a.a.y.t.5.%.............X...iXiXiXiXiXiXiXiXiXiXiXiXiXiXiXiXiXiXiXiXiXiXiXiXiXiX",
"iXiXiXiXiXiXiXiXiXiXiXiXiXiXiXiXiXX.......&.q.a.a.a.a.y.a.a.a.a.q.4.%.o.....iXiXiXiXiXiXiXiXiXiXiXiXiXiXiXiXiXiXiXiXiXiXiXiXiXiXiXiXiXiXiXiX",
"iXiXiXiXiXiXiXiXiXiXiXiXiXiXiXiXiXiX......&.8.y.y.a.a.a.y.y.y.t.7.%.......iXiXiXiXiXiXiXiXiXiXiXiXiXiXiXiXiXiXiXiXiXiXiXiXiXiXiXiXiXiXiXiXiX",
"iXiXiXiXiXiXiXiXiXiXiXiXiXiXiXiXiXiXiX....+.2.7.t.u.s.y.8.3.3.3.1.o.iXiXiXiXiXiXiXiXiXiXiXiXiXiXiXiXiXiXiXiXiXiXiXiXiXiXiXiXiXiXiXiXiXiXiXiX",
"iXiXiXiXiXiXiXiXiXiXiXiXiXiXiXiXiXiXiXiX....X.&.8.y.y.t.3.o.X.o.X.iXiXiXiXiXiXiXiXiXiXiXiXiXiXiXiXiXiXiXiXiXiXiXiXiXiXiXiXiXiXiXiXiXiXiXiXiX",
"iXiXiXiXiXiXiXiXiXiXiXiXiXiXiXiXiXiXiXiXiX..O.%.2.5.5.3.%.X.O.O.iXiXiXiXiXiXiXiXiXiXiXiXiXiXiXiXiXiXiXiXiXiXiXiXiXiXiXiXiXiXiXiXiXiXiXiXiXiX",
"iXiXiXiXiXiXiXiXiXiXiXiXiXiXiXiXiXiXiXiXiXiXiXiXo.%.o.o.X.....iXiXiXiXiXiXiXiXiXiXiXiXiXiXiXiXiXiXiXiXiXiXiXiXiXiXiXiXiXiXiXiXiXiXiXiXiXiXiX",
"iXiXiXiXiXiXiXiXiXiXiXiXiXiXiXiXiXiXiXiXiXiXiXiXiXO.O.....X.iXiXiXiXiXiXiXiXiXiXiXiXiXiXiXiXiXiXiXiXiXiXiXiXiXiXiXiXiXiXiXiXiXiXiXiXiXiXiXiX",
"iXiXiXiXiXiXiXiXiXiXiXiXiXiXiXiXiXiXiXiXiXiXiXiXiXiXiXiXiXiXiXiXiXiXiXiXiXiXiXiXiXiXiXiXiXiXiXiXiXiXiXiXiXiXiXiXiXiXiXiXiXiXiXiXiXiXiXiXiXiX",
"iXiXiXiXiXiXiXiXiXiXiXiXiXiXiXiXiXiXiXiXiXiXiXiXiXiXiXiXiXiXiXiXiXiXiXiXiXiXiXiXiXiXiXiXiXiXiXiXiXiXiXiXiXiXiXiXiXiXiXiXiXiXiXiXiXiXiXiXiXiX"
};
