/* XPM */
static char *be31d926a4ae474f95172722321b025doz9zAInlv0KWxIfD[] = {
/* columns rows colors chars-per-pixel */
"70 70 153 2 ",
"   c #544F3C",
".  c #5A523F",
"X  c #66614C",
"o  c #656253",
"O  c #6C6753",
"+  c #6D6A5B",
"@  c #736D5B",
"#  c #767263",
"$  c #7B7563",
"%  c #777568",
"&  c #7E7B6A",
"*  c #7E7F72",
"=  c #827A67",
"-  c #827E6C",
";  c #827F70",
":  c #85826F",
">  c #89826F",
",  c #868373",
"<  c #8B8573",
"1  c #8D8976",
"2  c #878578",
"3  c #8C8779",
"4  c #8E8A7A",
"5  c #928D7C",
"6  c #95917E",
"7  c #98927F",
"8  c #928F80",
"9  c #959181",
"0  c #9A9583",
"q  c #9D9986",
"w  c #9D9789",
"e  c #9D9A89",
"r  c #A09A86",
"t  c #A29D8B",
"y  c #A39E91",
"u  c #A6A28F",
"i  c #A8A18F",
"p  c #A6A393",
"a  c #AAA593",
"s  c #ACA896",
"d  c #A6A498",
"f  c #ABA79A",
"g  c #ADAA9A",
"h  c #B0AB97",
"j  c #B2AD9C",
"k  c #B6B19E",
"l  c #B3AEA1",
"z  c #B6B3A3",
"x  c #BAB5A3",
"c  c #BDB9A6",
"v  c #B7B5A8",
"b  c #B9B5A9",
"n  c #BCB9AC",
"m  c #C1BAA7",
"M  c #C3BEAD",
"N  c #C6BEB1",
"B  c #C4C0AE",
"V  c #C6C3B4",
"C  c #C9C5B5",
"Z  c #CBC8B7",
"A  c #C7C5B9",
"S  c #C9C6B9",
"D  c #C7C9BB",
"F  c #CCCABD",
"G  c #D2CCBD",
"H  c #C7CDC3",
"J  c #CACDC2",
"K  c #CCCCC0",
"L  c #CDCDC1",
"P  c #CECCC0",
"I  c #CFCDC1",
"U  c #CCCEC1",
"Y  c #CCCCC2",
"T  c #CDCDC3",
"R  c #CCCEC3",
"E  c #CECEC2",
"W  c #CFCFC3",
"Q  c #CAC9C4",
"!  c #C9CAC4",
"~  c #CBCAC5",
"^  c #CACBC5",
"/  c #CACBC6",
"(  c #CECBC4",
")  c #CCCBC6",
"_  c #C9CCC5",
"`  c #CBCCC4",
"'  c #CACDC4",
"]  c #CBCEC5",
"[  c #CBCCC6",
"{  c #CACDC6",
"}  c #CBCCC7",
"|  c #CBCEC7",
" . c #CCCCC4",
".. c #CCCDC5",
"X. c #CDCDC5",
"o. c #CFCCC5",
"O. c #CDCFC4",
"+. c #CECEC4",
"@. c #CFCFC5",
"#. c #CDCCC7",
"$. c #CCCDC7",
"%. c #CDCEC6",
"&. c #CCCFC6",
"*. c #CECEC6",
"=. c #CECFC7",
"-. c #CFCFC7",
";. c #CDCDC4",
":. c #CBCDC8",
">. c #CCCDC8",
",. c #CECDC8",
"<. c #CDCEC8",
"1. c #CCCFC8",
"2. c #CCCEC9",
"3. c #CDCEC9",
"4. c #CECFC9",
"5. c #CDCFCA",
"6. c #CDCEC8",
"7. c #D1CFC0",
"8. c #D0CEC1",
"9. c #D0CEC2",
"0. c #D0CDC4",
"q. c #D1CEC5",
"w. c #D3CFC4",
"e. c #D1CEC3",
"r. c #D2CFC8",
"t. c #CAD0C6",
"y. c #CED0C5",
"u. c #CFD1C6",
"i. c #CED0C5",
"p. c #CDD0C9",
"a. c #CFD0C8",
"s. c #CFD2C9",
"d. c #CFD0CA",
"f. c #CED1CA",
"g. c #CFD0CB",
"h. c #CFD2CB",
"j. c #CFD0C8",
"k. c #D0D1C3",
"l. c #D3D1C2",
"z. c #D2D0C3",
"x. c #D4D2C3",
"c. c #D5D4C2",
"v. c #D6D5C3",
"b. c #D0D0C4",
"n. c #D2D3C5",
"m. c #D0D0C6",
"M. c #D1D3C6",
"N. c #D3D3C7",
"B. c #D2D0C5",
"V. c #D0D0C8",
"C. c #D0D1C9",
"Z. c #D0D3CC",
"A. c #D2D0C9",
/* pixels */
"<.<.%.%.%.%.<.%.[ %.%.%.J W K K K K [ [ ^ ^ ^ ^ [ [ [ ^ [ [ [ [ [ [ [ [ [ %.[ [ ^ [ %.[ [ [ [ ^ ^ ^ %.^ [ [ ) ) K K K K K K K K J J K K J J ",
"<.<.%.%.%.%.<.<.[ %.%.%.%.%.[ [ [ [ [ [ [ [ [ [ [ [ [ [ [ [ [ [ [ [ [ [ [ [ [ [ [ [ [ K [ [ [ ^ ^ ^ ^ ^ [ %.) K K J K J K K K K J J K K K J ",
"%.%.<.<.<.<.<.<.[ <.%.%.%.<.[ [ %.%.%.%.%.%.%.%.%.%.%.%.%.%.%.%.%.%.%.%.%.%.%.%.%.%.%.%.%.%.%.[ K K [ [ [ %.%.[ J J J J J J J J [ [ ^ ^ [ [ ",
"%.%.%.%.<.<.<.<.<.<.<.%.<.<.%.%.%.%.%.%.[ [ %.[ %.%.%.%.[ %.%.%.%.%.%.%.%.W %.%.%.%.%.%.%.%.<.[ K K K [ [ %.%.K W W W W [ [ [ J [ [ [ ^ [ [ ",
"u.u.u.u.a.a.V.%.%.%.%.%.%.[ [ %.%.%.%.%.%.%.%.%.%.%.%.%.<.%.%.%.%.%.%.%.%.%.%.[ %.<.%.<.%.<.%.%.[ [ %.%.%.%.%.[ [ J %.W [ [ [ [ K K K K [ [ ",
"n.k.n.n.n.W %.K n.W W W %.J W W %.W %.%.%.%.W W %.%.%.%.%.%.%.%.%.%.%.W W W W W W %.%.%.K %.%.%.%.%.%.%.%.%.%.K K D W W K K q.( ( ( ( ( W W ",
"v.v.x.x.k.7.k.F F F F F F F F F F F F F F F F F F F W W F F F F F D D F D F F F F S F F F F ( F F F F W S F V F D F F F F F F F F F F F F F ",
"9 9 0 0 q e q e e t p s g s s s s s s f g s s s g g g g g s s g g j g g j g g j j j j j k j l l j j j j g g g g j k k k j z z z k z z z z z ",
"q 0 e w q e t #   > 5 6 0 0 9 0 9 9 9 0 0 0 0 6 9 0 6 6 6 6 6 6 6 6 6 5 5 5 5 5 5 5 5 5 5 5 5 5 5 5 5 4 6 5 X X < 1 5 6 6 5 6 6 6 6 6 6 6 6 ",
"F F S S S F C 9 @ c V V B B B M M M M M B M B M M M M M B M M B V V V V V B M M M M V B N V B M B B V B V m $ 6 M B V B B B B B B B B B V B ",
"K ^ K %.a.n.F p - V F F F F F F F F F D D D D F F F F F F F F F F F F F ( ( D D D D K D D D D D D F D F F B , u C F F F D F F F F D F D D F ",
"<.<.<.a.a.V.F g , V W W W W W K W K ( ( %.%.%.W W W K %.K K %.%.%.K K K ^ ^ K K K K K K K K K J J %.%.%.F S 5 s F W 7.W W D F K K W %.) %.%.",
"[ [ :.<.a.a.W g 3 V K W %.%.%.%.W W %.%.%.K K [ [ [ [ [ %.[ %.%.[ ^ [ [ [ [ ^ ^ ^ [ <.<.<.%.%.[ [ a.a.%.W S 5 h S W %.%.%.W W W W J %.K K %.",
"<.%.:.<.a.%.D d 3 A K %.%.%.) %.[ J %.%.%.K ^ %.%.<.[ [ %.%.%.%.[ %.%.%.%.%.[ [ %.%.%.<.%.%.%.K [ a.<.%.W A 3 j S W %.%.%.%.%.%.W %.) ) %.[ ",
"%.<.<.<.a.%.W d 2 S W %.%.%.%.%.%.%.<.%.%.%.%.%.<.<.<.<.<.%.%.%.<.<.<.<.<.<.<.a.<.<.<.<.<.<.<.<.<.a.<.%.K V < g D %.%.<.<.%.%.%.%.%.<.<.<.<.",
"%.a.a.a.a.%.K d , A W V.%.%.%.%.%.%.<.%.%.[ [ %.<.<.<.<.<.<.<.<.<.<.<.<.<.<.<.<.<.a.<.a.<.<.<.<.<.<.<.%.K V < j D u.<.<.<.<.%.%.%.%.<.<.<.<.",
"u.%.a.Z.a.V.7.y * D %.a.%.%.<.<.%.%.%.[ %.[ %.%.<.<.<.<.<.%.%.%.%.[ [ [ [ [ [ [ [ u.%.%.[ [ [ a.t.t.<.[ J V , l D u.a.<.%.[ %.%.%.%.<.<.<.<.",
"n.W u.n.%.q.q.w , S W %.W W %.W W W %.K %.K %.[ [ [ [ %.%.J K %.%.K K K J J J J J J W J J W J J J J J J F V ; j F W W W W W ( ( K W %.%.%.W ",
"F F F C C C Z q 5 V V C S C S S S C S A S V S A V A S A S C A S S A S S A V V V V V V V V V V V V V V V V m < k V C S S C V C C V V V V A V ",
", 1 3 4 5 9 4 $ - 5 9 9 9 9 5 9 9 9 6 5 9 9 9 9 9 6 9 6 5 5 5 5 5 5 5 5 4 5 5 5 5 4 5 5 5 4 5 5 5 5 5 6 6 < $ > 5 5 6 5 5 5 6 6 5 4 4 5 5 6 ",
"x k j h h j h h j g s s s s a a s s a a s s s p p p p p p u p p a u i u u u p p p p a a a a a a a s g a g u a s h a a s g g h j j g g s s s ",
"F C C Z C C Z F Z Z C Z C C C Z Z C C V V V V V V V V V C C Z C C C C C C V C C C C C C C C C C V V V V C C Z Z V C C C C V V V V V V V V V ",
"7.8.7.7.7.7.7.7.G 7.7.7.7.F F F F F 8.W W F F F F F F F F F F F F F F F F F F F F F F F F F F F F F D F F F F F F F F F F W F F F F F F F F ",
"7.7.q.B.B.7.q.7.7.7.7.n.q.7.q.W 7.W W W W W W W W W 7.7.W %.%.%.W W ( W K W W W %.W W W W W W %.%.W K W %.W %.%.K ( W W W W W W W W ( W W W ",
"q.q.q.q.r.q.r.q.n.n.%.%.%.%.%.%.7.7.%.%.%.%.%.%.%.%.%.%.%.%.%.%.%.%.) q.%.[ %.%.<.%.%.%.%.%.<.<.<.%.%.%.%.%.%.%.[ %.) ^ %.%.%.W %.W %.W %.W ",
"q.%.r.V.V.%.V.%.a.a.%.%.%.u.%.%.%.W %.%.%.%.%.[ %.%.%.%.%.%.%.[ %.%.%.%.%.%.<.<.<.<.<.%.%.%.%.<.<.<.%.<.%.%.%.%.%.%.%.<.%.%.%.%.%.%.%.%.%.%.",
"a.%.n.n.V.a.a.a.a.a.%.%.%.%.<.%.%.%.%.%.%.%.%.%.W %.%.%.%.%.%.%.W W %.%.%.%.<.<.%.%.<.%.%.%.[ %.<.%.<.%.%.<.%.%.<.<.<.<.<.<.%.%.<.%.%.%.%.%.",
"%.%.n.n.a.a.a.%.a.a.%.%.%.u.%.%.%.%.%.%.%.%.W W W W %.%.%.%.%.W W W W W [ %.%.%.%.%.%.%.%.%.[ %.%.%.%.%.%.%.%.%.%.%.<.%.<.<.<.<.%.%.%.%.%.%.",
"V.V.%.W %.%.%.%.%.W %.W W u.%.W %.n.%.%.%.%.W W W W W W W W W W W W W D W W %.W W W W W W W W W J W W %.W W W W W W [ W %.%.%.%.[ J W J J W ",
"B.W 7.W W W W D W F W W D D D D W W W F W F F D F F F F F F F F F F F F F F F F D F F F F F F F F F F F F F D D W D F J W W W W W D D D D D ",
"k z z z z z z z c x x z z x x x x x x z z z z z x x z z z z z z z z z k z k j k k k k k k j j k z z z j k z z z z z z z z z z z z z z k z z ",
"> > - - : > > , , , , , , < < < < < , < < < < < < < < < < < < < < < < , < < < > > < , , , < , < < 3 3 < < < 3 1 1 1 1 1 1 1 1 1 1 1 1 1 1 1 ",
"V M m M m m m m c c c c x x x c x x x x x c x x c c c c c c c c c x c c c x x c c x c c x x x x x x c x x x x x x z z z x x z x z z z z x z ",
"F F F F F F F F F F F F F F F F F S S S S S S C S C S S S S C S S F S C S C S S F S C S S S S A F S F S C C S C C F S S S S C S S C S S C V ",
"n.7.7.7.q.W q.W W W ( W W W W ( W W ( K K K K K K K ( ( K K K K K K K ( K K K K K K K W K K K K K K K K K K K K F F ( ( F F ( ( F D K W K J ",
"q.q.q.q.%.V.%.%.%.%.%.%.%.%.q.q.W W %.%.%.%.%.%.%.%.%.%.%.%.%.%.%.[ [ [ [ [ %.%.%.%.[ [ [ [ ) <.%.%.%.%.%.[ [ %.%.q.q.q.%.W %.%.W W %.%.%.%.",
"n.%.V.V.%.%.n.%.%.%.%.%.u.%.q.q.%.W W W W W %.%.%.) %.) %.%.%.%.[ %.%.%.%.[ %.) [ %.%.%.%.%.%.%.%.W ) %.%.%.%.%.W W W W W W %.W W W %.%.W W ",
"%.%.%.%.%.%.%.%.%.W %.%.%.W %.%.%.W %.W %.%.%.%.r.<.%.%.%.) [ [ [ [ [ [ [ [ [ [ [ [ %.%.%.%.%.%.%.%.%.%.%.%.%.%.%.%.%.%.%.W %.W %.%.%.%.%.W ",
"a.%.a.%.<.%.<.<.%.%.u.%.%.[ <.%.[ [ [ [ %.%.%.^ %.^ %.[ %.[ [ [ <.:.[ [ :.[ :.:.[ [ <.[ [ :.<.<.%.%.<.<.[ <.a.[ %.%.<.[ [ %.%.%.%.[ %.[ %.[ ",
"%.%.a.%.<.<.%.<.%.%.%.<.<.%.<.%.^ [ %.^ [ [ ^ [ <.%.<.[ [ [ [ :.:.:.[ [ <.[ [ [ t.[ [ <.[ [ [ [ [ [ %.[ [ [ [ [ <.%.%.%.[ [ %.%.[ [ [ [ <.[ ",
"V.%.%.%.%.%.%.%.%.%.%.%.[ [ [ W %.%.%.%.[ J [ J [ J [ [ [ %.H [ [ [ [ [ J J J J J J W W J J W W J J J J W W W W %.%.%.[ [ [ [ J J J [ [ [ J ",
"N.n.7.7.n.7.7.7.7.7.W W W D A D F D D W W F W F F F F F J F F J J J J F F F F F F F F F F F D D D D D F F F D F F W W W D A A D F F J J J F ",
"q r t t t t t t r t r r t 0 0 q t t q e e q r q r q q q q q q q q q q q 0 0 0 0 0 0 t t q q q t e t t t t t t t t q e q e 0 e p t e e e t t ",
"0 9 9 9 7 9 0 q q 0 q 0 q r = . < 0 0 q q q r q r r r r q t t r t r t r q q q q q q 0 0 0 0 0 0 0 0 0 0 0 0 0 0 9 9 0 q 0 O X 9 7 0 q q q q ",
"F C C C Z V C C V V V V V M r @ m m C B B B M M B B B M M B M B B B V M M B B B B B B B B B B M B B B V B B B B M M V V m $ 3 V M V M B B B ",
"G F F W 7.F 7.W F 7.G G G C u = V F G G G G F F F F F F F F F F F F F F F F F F F F F F D F F F F F F F D D F F F F F G M , r V G F F F F F ",
"7.n.q.W q.%.q.q.q.7.7.7.7.F s - C F F 7.G G F F 7.W F 7.F F F F F W W F F F W W W F W W J W W W J J W J F F F D F 7.G 7.C 3 y C F F W F 7.F ",
"%.n.%.%.%.V.V.V.%.%.n.%.7.F f , V F 7.7.7.7.7.W W W W W W W W W W W W ( ( ( %.%.J W J %.W J %.%.%.%.%.W %.W W W u.W 7.W S 4 d S F 7.7.W W F ",
"%.V.q.q.V.V.r.V.%.%.a.%.%.D d , S F 7.7.W W q.W W W W W W W %.%.%.%.%.) W W %.%.%.%.%.%.W W %.%.[ %.%.%.%.%.%.W %.u.W W S 3 p F W 7.q.q.%.W ",
"V.V.V.V.V.%.%.%.%.%.a.a.%.K d 2 F W 7.7.W W q.q.W W q.q.%.%.q.q.%.%.) %.%.%.%.%.%.%.%.%.%.%.<.%.%.%.<.%.<.<.<.%.%.%.u.W A 2 g D 7.W q.%.u.u.",
"a.V.V.V.V.%.%.%.%.%.<.V.%.K d * S 7.W %.%.%.q.q.%.%.%.%.%.%.%.<.%.%.%.%.%.u.%.%.%.%.V.%.%.%.<.<.a.%.<.<.a.<.a.a.u.%.u.W A , g F W i.n.u.u.i.",
"W V.n.n.n.u.n.n.n.a.%.%.%.D 9 % V F q.7.%.W q.W W W W W W W %.%.%.W %.%.%.%.%.%.W u.W W %.%.%.%.%.%.%.<.a.<.<.<.%.W J W V # y D W k.n.i.W W ",
"B.7.7.7.W W 7.W 7.W %.%.K W 3 + V F 7.7.W W W F 7.7.W W F F W W F F W W W W W D W J W W W W W D W W W W J J %.%.W n.W F V o t V G 7.7.W W F ",
"G F F F F F F F F S A S D A 2 % m C S F C S S V C S C C C V C C V V C C V V V V A V S V V C C V V V V V V V V V A V V C n + y M F F F C C C ",
"3 4 4 4 5 5 5 5 5 5 5 9 9 4 @ # 5 9 9 9 9 9 0 9 9 9 9 9 9 9 9 9 6 5 9 9 9 6 5 8 5 5 5 5 4 5 5 4 5 4 5 6 5 5 5 5 5 5 9 5 , @ - 5 5 9 5 5 5 6 ",
"z z z z l j j j j g j g j h h j z j h h h g j g h h g h h g h g g g g h g g g s g g s h j g s g h g j g g j j j j j g h h j j z j j j k k k ",
"F S S F Z S S S A A S V S C F F D F F V S C S C C C C C C C C C C C C C V C C C S C C V V V V V S S V V V V V V V V V V S C C C C V V V C C ",
"n.7.q.q.q.n.q.7.7.7.7.W 7.7.7.7.W W W W F W W W 7.7.7.7.W W W W W W W F F F 7.7.W W 7.W W F F W W 7.7.F F F W W W W W W ( F 8.8.7.F F F W W ",
"n.n.q.q.q.q.r.q.q.q.q.7.7.n.q.q.n.W q.q.q.n.q.W W W %.W W W W W %.W %.W %.W 7.W W W W W W W W %.%.%.W W W W W 7.%.W W q.W 7.q.7.7.7.7.W W W ",
"q.n.q.q.r.r.V.r.q.q.q.q.q.q.q.q.n.n.q.n.n.q.q.W %.%.%.%.W W %.%.%.n.%.%.%.W %.%.W W %.%.W W %.%.%.%.%.%.W 7.q.q.%.n.n.q.q.q.q.q.W W q.q.%.%.",
"q.V.V.r.Z.A.A.q.q.q.n.B.q.n.q.A.q.q.q.q.n.n.n.n.n.n.n.n.%.%.%.%.q.q.%.%.%.n.%.%.%.%.%.%.%.%.%.%.q.q.%.%.%.%.%.q.%.%.%.n.%.%.%.%.%.%.n.%.%.%.",
"q.A.V.V.A.A.r.q.q.q.n.A.V.V.n.q.r.r.A.q.%.n.n.q.n.n.n.n.n.n.V.V.n.%.n.n.n.%.%.n.n.%.n.%.%.%.%.%.n.%.%.%.u.%.%.%.%.n.n.n.u.u.%.n.n.n.n.n.n.n.",
"r.A.V.r.A.A.r.r.q.q.A.V.r.r.V.r.r.q.r.V.%.n.q.q.%.%.%.%.%.n.V.%.%.n.%.%.n.%.%.V.%.W V.q.V.%.%.%.V.%.%.%.%.%.%.%.%.a.V.%.%.%.V.V.a.a.a.a.a.V.",
"B.q.r.q.A.q.q.q.q.q.q.q.q.q.q.q.r.q.q.%.n.%.%.q.q.%.%.n.%.%.q.q.%.%.%.%.%.W %.n.n.W %.q.q.%.%.%.%.%.%.%.%.%.%.%.%.n.%.n.%.%.%.%.%.%.V.V.V.u.",
"N.7.7.7.7.7.7.7.w.7.7.7.7.7.( q.q.q.( 7.7.7.7.7.7.W W 7.W W 7.W W F W W W F W W F F ( W 7.7.W W q.W ( W W W W W 7.W W W 7.7.7.W W W W %.( W ",
"v v v v b b b b b b b b b b b b b b b b b b b b b b v v v b b b v x b n b n b v l b n n b n b x b x b v v x b x b x b b b v b b b x b b b b ",
"< < 3 < 3 3 3 3 4 5 5 5 5 5 5 5 5 5 5 5 5 4 4 4 5 5 5 3 3 3 5 4 5 4 5 4 5 4 , & $ & , , < 1 4 4 4 1 4 < 3 4 4 4 5 4 5 4 4 4 4 4 5 4 5 4 5 4 ",
"C N N C C V V V V V N N N N N N N M M M M M M M M M M M N M M M M B M M B V B m c c m M B B M M M M M M M B M M M M M M M M M M M B M M M M ",
"7.G G G G G G G G G 8.G G G G G G G G G G G G G G G G G G G F G G G G G G G G Z F F G G G G G G G G G G G G G G G G G G G G G G G G G G G G ",
"w.w.w.w.w.x.x.x.w.w.w.w.w.w.w.w.w.w.w.w.G G w.w.G G w.x.w.x.w.x.x.x.x.x.G G x.G x.G w.w.x.x.w.w.w.w.w.w.G G x.w.G G x.x.G G x.x.G G w.w.G G "
};
