/* XPM */
static char *_cf5e0344bd34dcea7f2a0df3703e33e32Ae8GTRsD73q20W[] = {
/* columns rows colors chars-per-pixel */
"70 70 219 2 ",
"   c #340000",
".  c #3B0000",
"X  c #450300",
"o  c #4C0300",
"O  c #4C0900",
"+  c #540300",
"@  c #5A0400",
"#  c #540B00",
"$  c #5B0C00",
"%  c #561101",
"&  c #5C1200",
"*  c #5F1900",
"=  c #630700",
"-  c #6C0700",
";  c #630C00",
":  c #6A0E00",
">  c #740D00",
",  c #651201",
"<  c #6B1401",
"1  c #641A03",
"2  c #6D1B02",
"3  c #661B0B",
"4  c #6C1E0B",
"5  c #731500",
"6  c #7B1500",
"7  c #731C01",
"8  c #7C1D00",
"9  c #741D09",
"0  c #6D2005",
"q  c #6C210A",
"w  c #752202",
"e  c #7C2402",
"r  c #7E2904",
"t  c #74230B",
"y  c #7A250A",
"u  c #75280C",
"i  c #7C2A0B",
"p  c #7B2111",
"a  c #7C2B10",
"s  c #831D00",
"d  c #8B1D00",
"f  c #831400",
"g  c #822401",
"h  c #8B2500",
"j  c #832902",
"k  c #8C2B02",
"l  c #82260A",
"z  c #832B0B",
"x  c #8C2D0B",
"c  c #922600",
"v  c #932B01",
"b  c #992D01",
"n  c #912E0B",
"m  c #992F0F",
"M  c #8B3106",
"N  c #8C310B",
"B  c #84320C",
"V  c #943204",
"C  c #9B3303",
"Z  c #9C3A05",
"A  c #94340B",
"S  c #9B350C",
"D  c #95390C",
"F  c #9C3A0C",
"G  c #832B12",
"H  c #8C2C13",
"J  c #80281A",
"K  c #902A11",
"L  c #9B2F12",
"P  c #863415",
"I  c #8D3211",
"U  c #8A3A17",
"Y  c #943611",
"T  c #9B3213",
"R  c #943A13",
"E  c #9C3C13",
"W  c #A42E01",
"Q  c #A92F00",
"!  c #A43503",
"~  c #AB3501",
"^  c #A53B04",
"/  c #AC3C03",
"(  c #A2360B",
")  c #A33B0A",
"_  c #AB3D0A",
"`  c #B13600",
"'  c #B23D02",
"]  c #B93E02",
"[  c #B13E09",
"{  c #BC3F0B",
"}  c #A33C12",
"|  c #AB3D12",
" . c #9C4119",
".. c #A44203",
"X. c #AE4003",
"o. c #A6430E",
"O. c #AC420B",
"+. c #AA480F",
"@. c #A7490C",
"#. c #B34202",
"$. c #BB4403",
"%. c #BE4A01",
"&. c #B4440B",
"*. c #BC430D",
"=. c #B5490B",
"-. c #BB4C0C",
";. c #B54805",
":. c #BC510B",
">. c #BC580C",
",. c #A34214",
"<. c #AB4314",
"1. c #A74916",
"2. c #AC4A13",
"3. c #A3461B",
"4. c #A54918",
"5. c #AF4D1A",
"6. c #B34513",
"7. c #BD4510",
"8. c #B34B13",
"9. c #BC4D12",
"0. c #B34718",
"q. c #B34D19",
"w. c #B94E1A",
"e. c #B55215",
"r. c #BD5314",
"t. c #BE5A15",
"y. c #B5531C",
"u. c #BC531A",
"i. c #9E4922",
"p. c #AD4A20",
"a. c #BC5222",
"s. c #B85A26",
"d. c #C44403",
"f. c #CA4502",
"g. c #C44B02",
"h. c #CC4C03",
"j. c #C0430E",
"k. c #C34C0A",
"l. c #C94D09",
"z. c #C94709",
"x. c #D14E04",
"c. c #C65006",
"v. c #CC5106",
"b. c #C65109",
"n. c #CC530B",
"m. c #CD5B0E",
"M. c #D25205",
"N. c #D55A06",
"B. c #D95B06",
"V. c #D25509",
"C. c #D65A0D",
"Z. c #D55B0B",
"A. c #D95E09",
"S. c #DA5D0B",
"D. c #C14E12",
"F. c #C14511",
"G. c #C35213",
"H. c #C95413",
"J. c #C35519",
"K. c #C25B1B",
"L. c #C55916",
"P. c #D45C11",
"I. c #DA5D11",
"U. c #DD610B",
"Y. c #DC600D",
"T. c #D56214",
"R. c #DB6113",
"E. c #DF6B14",
"W. c #DB6C1B",
"Q. c #E0620E",
"!. c #E36513",
"~. c #E86716",
"^. c #E16915",
"/. c #E26E18",
"(. c #CB5F23",
"). c #C45D23",
"_. c #C8682E",
"`. c #D16B20",
"'. c #CB6630",
"]. c #F9851D",
"[. c #FC8C1F",
"{. c #F78425",
"}. c #FA8523",
"|. c #FA8725",
" X c #FC8624",
".X c #FB8A22",
"XX c #FD8A20",
"oX c #FC8A23",
"OX c #FB8C21",
"+X c #FA8E21",
"@X c #FC8D22",
"#X c #FC8D21",
"$X c #FB8A24",
"%X c #FA8926",
"&X c #FD8926",
"*X c #FC8825",
"=X c #FA8E27",
"-X c #FC8C26",
";X c #FC8D24",
":X c #FB8C24",
">X c #F88429",
",X c #FB8928",
"<X c #FB882B",
"1X c #FA8A29",
"2X c #FD892A",
"3X c #FB8E29",
"4X c #FD8D29",
"5X c #FE8D2A",
"6X c #FD8A2D",
"7X c #FB8B2B",
"8X c #F68C27",
"9X c #FE9222",
"0X c #FD912A",
"qX c #FD932B",
"wX c #ED8F35",
"eX c #F08F31",
"rX c #FB8D31",
"tX c #FE9131",
"yX c #FA9931",
/* pixels */
"$X$X|.7X,X8X$X.XoX5X0X0X0X0X5X3X;X;X5X5X3X3X5X5X5X5X5X5X;X;X-X-X-X-X-X-X-X#X#X#XOXOX#X#X#XOX.XXXOXOXXXXXXX#X#X#X#XOX#X#X#X[.XX.XXXXX].].oX7X",
"{.$X>X6X>X7X7X7X7X6X6X6X7X7X6X6X,X,X,X7X7X7X7X6X6X6X7X,X,X,X,X,X,X,X,X,X$X$XoXoX$X$X$X$XoXoX|.oXoXoX*XoXXXXXoXoX$X$X$X$X|.|.|.}.}.}.}.{.{.>X",
"5X,XE.Z.Z.Z.Z.Z.C.Z.C.C.Z.Z.N.N.N.N.N.V.N.N.N.Z.Z.Z.Z.N.Z.N.N.N.N.N.N.N.N.N.N.N.N.N.Z.Z.B.N.N.N.B.N.A.A.B.B.A.A.A.A.Z.A.N.N.Z.N.U.U.Y.v.$.$.",
"5X,XA.v.M.v.h.h.h.h.h.h.h.h.h.h.h.h.h.h.h.h.h.h.x.x.h.h.v.h.v.h.h.h.h.h.h.h.x.x.h.v.h.M.M.M.M.M.M.M.M.M.M.M.M.M.M.M.V.V.V.V.V.h.Z.B.C.d.` ` ",
"XX}.A.h.v.h.M.M.M.M.x.M.M.M.x.M.M.M.x.x.M.M.M.M.M.M.M.M.M.M.M.M.M.M.M.M.M.M.M.M.M.M.M.M.M.M.M.M.M.M.M.M.M.M.M.V.M.V.V.V.M.M.M.v.Z.B.V.d.` ` ",
"[. XU.h.M.M.M.M.n.M.M.M.M.M.M.v.v.v.v.v.M.v.v.v.v.v.v.v.v.v.v.n.n.n.n.v.V.n.M.M.n.n.M.M.M.M.M.M.M.V.V.V.V.V.M.V.V.V.M.V.M.M.M.h.V.S.V.$.` ' ",
"[.oXU.h.x.h.h.h.n.v.v.v.v.v.v.v.v.v.l.b.b.b.c.b.b.b.b.b.c.c.b.b.g.g.g.g.b.b.b.b.b.b.b.b.c.g.g.h.g.g.v.v.v.v.c.c.v.v.h.v.n.n.h.h.N.A.V.$.] ' ",
"#X$XY.h.h.f.z.k.k.k.k.-.-.-.-.-.-.-.-.-.-.-.=.=.=.=.=.-.-.-.-.-.-.-.-.-.=.=.-.=.-.-.-.-.-.-.-.-.-.-.-.-.-.-.-.-.-.k.k.%.$.$.$.g.B.Z.V.$.' ' ",
";X7XY.h.z.d.$.&._ ) ) ) ) ) ( C C C C C V V v v b b V v v v v v v v v v C V C V C C C C C C C C C C C C C C V V C b b ! ` $.] d.C.Z.N.$.#.#.",
"5X,XC.h.z.$.[ c h g 8 e 8 g g g g g s g g e g g g g g g g g g g g g g g g g g g g g g g g g g g g g g g e e e e 8 s c &.D.] ` g.S.Z.Z.%.#.#.",
"3X7XC.h.z.$.[ h 8 7 7 7 2 7 w e e e e e e e e e e e e e e e e e e e e e e e e e e e e e e e e e e e e e e e 7 e e h &.D.-.` ' g.Z.Z.N.%.#.#.",
"3X7XC.h.z.*.| s 2 2 2 2 7 7 7 7 7 w w w w e e e e e e w 8 8 w w w w w w w w e e w 8 8 8 w w w w w 7 w 7 w w w w g 5.8.*.' ` ] g.C.Z.Z.%.#.#.",
"3X7XP.g.z.*.} 5 , t r g h g 8 e 7 2 7 t w e e g s e e e e e e e e e y e w w e e e e e g g e e e e e e e e e e g +.r.9.] ` ` ] g.Z.Z.N.%.#.#.",
"qX7XC.z.z.7.T ; @ 4 x V S S S E N 8 , & t z x V C V V V k k j j j j r r r r r j k k V V V V V k k x A k z g h 2.r.-.' ` ~ ' $.g.Z.N.N.%.#.#.",
"tXrXC.z.d.*.T @ + 2 A ( / ~ [ &.6.E : + # a Y } ) _ ) ) F v k j j j g j j j g j A F ) ) ^ ^ ) C V V V V g h <.K.-.#./ / ` $.$.g.Z.N.m.%.#.X.",
"tXrXC.z.d.7.T @ o 2 A ! / ~ ` ] *.+.3.; $ $ y A ) ) ) ) V k h j j g j e e e g j V F F ( ! Z C V k k V k V q.K.r.#./ / ' #.#.$.g.C.N.N.%.#.X.",
"yX3XC.h.f.7.T @ o 1 n ( / ` ~ ` #.&.8.<.: + $ 7 z k k k j g g j j j j r r e r e j j k k h k h j e e e k O.r.-.#./ / / #.#.#.$.%.C.Z.N.%.#.X.",
"qXtXS.f.f.F.T @ X & x ( _ ` [ ' ` #.-.9.E < @ $ 2 y e e e e e e e e e e e w e w e e e e e e 7 7 w e j @.r.b.#./ / / / #.&.=.^ ;.C.Z.N.%.#.#.",
"qX3XS.f.f.j.T + X $ H ( / / / / / ` ] *.8.E < @ # q w w w e e w w 7 7 e w w w w w w e w w w 0 2 w g @.r.:.#.' / / / #.=.+.F 5 +.P.N.Z.%.#.#.",
"qX3XS.f.f.j.T @ X O G A ( / / / / / ` #.;.e.E ; + $ t i r e g j g g h k j j j j j j j e w w w e e 2.K.:.#./ / ~ X./ / 8.E < ; 5.T.N.Z.%.#.#.",
"qX3XS.f.f.j.T + X . $ G S ! / / / / ~ ' #.=.=.F 2 $ , i N A F ) ) ) ) ) ) ) ) ) ) ) ) ,. .Y e j 2.t.:.#./ / / / X./ +.D , + $ y.T.Z.N.%.#.#.",
"qX3XR.f.f.j.T + . . . $ l S ) / ^ ^ / / / #.=.u.E : @ , r D Z ^ / / _ / O.X./ / / / ^ o.D j g 2.t.:.#./ / / / / / O.D 1 O X < y.P.N.m.%.#.' ",
"qX5XR.f.f.j.T + .   . X $ z S ) ^ / ^ / / / ;.=.2.A , @ < z D Z ^ / / / / X.X./ / / Z A k g 8.L.:.;./ / / / ' X.^ E 2 O X & M J.C.A.N.%.#.#.",
"qXtX!.f.f.j.T + . . . X o ; l F ) ^ / / / / / #.=.y.R ; + , e D Z ^ / / / / / / / ^ Z h h +.K.:.#./ / / / / / ^ E 7 O X # z Z H.C.N.N.%.#.#.",
"qXtX!.f.f.j.T + . . X 3 $ @ $ i F ) / / / / / / #.8.q.A : $ , i D Z ^ / / / ^ ^ ) Z k k 8.t.G.#./ / / / / / ) ,.7 # # & P F ! n.S.N.N.%.#.#.",
"qXtX!.f.f.j.T + . . o J H < + $ l F ) ^ / / / / / X.O.q.E , + $ r D ) ^ ^ ^ ^ ) Z j k +.r.-.;./ / / / / / ) E w # O # P ,.^ ~ n.Y.N.N.%.#.#.",
"qXtX!.f.f.*.T + . . + H } v < @ $ e A ) ^ / / / / / X.=.8.A : @ & i D ) ) ^ F A k k O.L.-.#./ / / / ' / ) E u O # # z ,.) ^ ! v.S.N.N.%.#.#.",
"qXtX!.f.f.*.T + . . @ K | _ Y < @ @ 8 E C / ^ / / / / X.=.8.E , O $ y D A A M j h +.t.=.#.' / / / ' #._ ,.i O O # t 3.+.O.^ ! n.Y.A.N.%.#.#.",
"qXqX!.f.f.j.T + . . + H <.&.<.Y : @ ; 8 F ) ^ ^ / / / / ' &.w.} $ o & 0 y e 7 e @.r.-.#./ / / ' ' ' / ) r # X X 0 i.,.,.( b C H.Y.A.Z.%.#.' ",
"qXtX!.f.f.*.T + . . + H <.&._ ) A 5 @ @ 8 A C ^ / / / / / ' #.8. ., O # $ , e 2.e.=./ / / / ' / ' / ) j $ O O * U N A j g s c k.Y.A.Z.g.#.' ",
"qXqX!.f.f.j.T + . . + K _ ' &.[ _ S < @ $ y A F / / / / / / ' &.u.4.& X $ e 1.r.=./ / / / / ' / / ( z $ X X , P z r e e e s c H.R.A.Z.g.#.#.",
"qX5X!.f.f.j.T + . . + H } / / _ ) S z < + # y A ) ^ ^ / X./ / / #.u.3.< 7 s.u.=./ / / / / / / / ( z # O O & i r e e w w e h c H.R.A.Z.g.#./ ",
"qX7X!.f.f.j.T + . . + p x k k x x x y y , o @ 7 A ) ^ / / ^ ^ / #.;.(.K.>.W.=./ / / / / / / ^ ( z & O X * i y e w w w w e k b H.I.A.Z.g.#./ ",
"qX7X!.f.f.j.T + . . o , 5 5 5 5 7 7 7 7 1 $ @ $ e A Z ^ ^ ^ ../ / ` #.P.T.m./ / / / / / / ^ ( j & O O & u r w e w w w y y k b H.I.A.Z.g.#.#.",
"qX7X!.f.f.j.T + .   X , < 5 5 5 5 5 7 5 5 < $ + @ w A ) ^ / / X./ / / #.n.g./ / / / / / ^ F y & # O 1 u i y w w e e w e 7 g c D.C.N.Z.g.#.#.",
"0X7X!.f.f.j.L + .   X p I x x A n V A A v k l , + # w A ) / / / #./ / ' $.-.;.#./ / / ) S e $ # # 1 u i e e e e e g g g 8 h c k.S.N.N.g.#.#.",
"0X7X!.f.f.*.L @ .   o H E ) _ ) _ _ ) ) _ _ F Y 1 O @ w E C / / / / / / / &.k.$.' / ^ F e # # # 1 a i y e e g k v C C ) ) ^ ~ v.N.B.N.g.#.' ",
"0X7X!.f.d.*.T @ .   + x O.X.' ' / / / [ ' ' _ } P & X + 7 A ) / / / / / / ' $.-.;./ ( g $ # O 1 a r e y g k S _ _ O._ O.[ / ` v.B.B.N.g.#.' ",
"0X,X!.f.f.*.L @ .   + x O.#.' ' / ' ` [ / / / ) Y 4 X X , z C ) / / / / ` ` ] ;.=.8.V ; + # 4 u l g e h k v ( _ ' ' / / ' ' ` n.B.B.N.g.#.' ",
"0X,X!.f.f.*.L @ .   + H ) / _ _ / / / _ _ _ _ ) Y 2 O # w N V ( ) / / ' ' ' ` ' ;.w.F < # 3 q t y g k k k v C O./ _ _ _ [ [ ' n.B.B.B.g.#.' ",
"0X7X!.f.f.*.L @ .   + G T C C C C C C C S S S A w $ $ B 4.o.C C ) ) ^ / / / / / #.=.8.V , , 4 t e j k k k k k S C C C v v c c D.C.B.N.g.#.' ",
"0X7X!.f.f.*.( @ .   X 9 g s s s s s 8 8 s s 8 e 2 2 M 1.8.&.~ b c C ) ^ / / / / / #.=.q.A ; $ 2 G l k k h g s s 8 8 8 8 5 5 s D.Z.B.N.g.#.' ",
"0X5X!.f.f.*.T @ .   X u k v c c c c v x k j e 2 7 D o.=.&.#.` ! c c ( ) ^ / / / / ' #.*.8.n ; , 4 G N V V v v k k k k k v v b D.Z.B.V.g.#.' ",
"0X5X!.f.f.*.T @ .   O a S F ( ( ( ( F Y N l 7 7 D 2.=.;.#.' ' / ^ b c C ) / ^ / / / ` $.*.0.T : $ 2 I Y F F F F F ) ) ) ) ) ! k.Z.B.V.g.#.' ",
"0X7X!.f.f.*.L @ .   O G S ( ( ( ( ( S N l 7 7 A +.-.=.' / ' ' / / _ c h S ) ) ^ / / ~ [ &.6.q.k ; $ 7 I A C C C ) ^ / / / / ' l.B.B.N.g.#.' ",
"0X7X!.f.d.*.L @ .   X u V b b b b c k e 7 7 F 8.=.;.' ' / / ' / X._ E g 5 k F ) / / / ~ / &.-.q.D : ; < z n V C Z ! / [ ~ ~ ` l.B.B.N.g.#.' ",
"0X7X!.f.d.*.L @ .   X t h h h h h g e 7 7 D 8.9.=.#.' / / / / / O.) l ; $ , z E ) / / / ~ / -.=.y.V ; $ , y N k C ) ! _ ) _ ~ n.C.B.Z.g.#.' ",
"0X7X!.f.d.*.T @ .   X t j g g e e 8 7 7 F e.=.=.#.X./ X.X./ / ^ F e $ # $ $ ; 8 S ) / / / / / &.-.8.k , $ & t j k k v v c c c H.C.N.Z.g.] ' ",
"0X7X!.f.d.*.T @ .   X 4 e g e e 7 7 8 Z e.-.=.#./ ' / / / X.O.F e & # + $ , $ @ 7 S _ / / ~ / / -.=.u.A $ # & 0 y e g g e 8 h D.C.B.Z.g.] ' ",
"0X7X!.f.d.*.L @ .   X q y y e w 7 7 F u.=.=.#.' / / / / / ^ S r & % $ 1 4 1 , ; ; 8 S ) _ [ / / / -.-.6.x $ # & q i y e e g h r.C.N.Z.g.] ' ",
"0XoX~.f.d.7.L @ .   X 4 w e e 7 7 D 8.:.;.' / / / / / / O.F e $ # # 2 y y 7 w t , ; 5 A 6.' ' ' ! / 9.9.w.D $ # # q u i y j c D.C.N.Z.g.] ' ",
"0X7X~.f.d.*.L @ .   X 4 w e 7 7 D 8.-.-.' / ' / / / / O.F 8 $ & % 3 e g l y r y 7 ; = 6 S 6./ ' / ~ ~ *.G.8.N $ # % 3 u y g h D.C.N.Z.g.] ' ",
"0X7X~.f.d.*.L @ .   X 3 t 7 5 D e.-.=./ / / ~ ' / ^ o.F w & # & 3 y e l j g g e e 7 < ; < n 0.&.#.~ ~ ! #.9.u.D , # # 3 u e h D.C.N.Z.g.] ' ",
"0X7X!.f.d.*.m @ .   X 3 7 7 A q.r.=./ / / / / / ^ ,.D 7 & # % 1 y r y j l g g e e y 7 : ; : A <.[ ' ~ ~ / #.G.u.N , # % 3 w k -.C.N.Z.g.] ' ",
"0X7X!.h.d.{ m $ .   . & 2 A 8.-.=./ / / / ` ] / ) R 0 & % % 3 u e e y l e g l g e y y 7 < ; : g a./ &./ / ~ *.9.u.F $ # X 2 g D.C.Z.N.g.] ' ",
"-X7X^.h.d.*.T $ .   X , D 8.9.=./ / / / ' ' / ) E w & # # 1 u y e e j e e e g e y y y e 2 ; ; : h a.=.' / ~ ! ;.H.).R $ + $ h 9.C.Z.Z.g.#.' ",
"-XoX^.h.d.*.T , X X # I q.9.=./ / / / ' / O.) E w & # % 3 w r e e e r e j g g g g g e e e 7 : ; : g 0.&.#.' / ~ #.L.y.D ; ; 5 w.C.N.V.g.#.' ",
"-XoX!.h.d.{ ( 5 # # l p.9.*./ ~ / / / #./ <.E 7 & # # 1 i y e e g e r e e e g e g e e e y 7 9 : @ ; k w.-.#.~ ~ ~ / K._.R : - 9.P.Z.N.g.#.' ",
"#X$X^.g.d.*.( 8 , 7 E 0.7.~ ~ ~ / / #./ ) E 7 $ # # 3 t y e e e e e y y e e e e e e e e y y 7 2 $ @ ; n w.=.*./ ~ ~ ! w.'.v 6 9.C.N.m.g.#.' ",
"#X$XE.g.d.*.( 6 7 y | _ ~ ~ ~ / #.#.] ' C 8 : $ $ , w y g g g e g e e e e g e e e e e g e 8 8 7 7 < = - d 9.-.$.~ W ~ / r.(./ *.C.Z.N.g.' / ",
"#X$X^.g.d.] ( 6 7 z } C W ~ ' ;.$.$.] ] b s 8 5 8 h h h h h h h h h h h h h h h h h h h g h h h h 8 > > f W $.d.$.~ Q W / J.H.v.C.Z.C.g.#./ ",
"#X.X/.g.d.] ! s 8 x v C / $.k.l.v.h.g.l.D.9.w.u.u.J.J.D.9.D.9.9.r.r.r.9.9.9.9.-.9.9.9.-.-.9.-.9.r.u.0.0.9.D.l.v.v.-.] ~ ~ ~ $.v.Z.N.C.g.' / ",
"[..X/.g.d.] ! s 8 8 h C -.b.n.C.N.V.C.C.C.m.m.P.C.C.I.P.P.P.C.C.C.R.R.C.R.R.R.R.R.R.R.R.R.I.R.I.C.C.P.R.P.C.S.C.C.n.v.l.g.h.h.v.S.N.N.g./ / ",
"9XOX/.g.d.*.W s 6 6 s C G.b.P.C.I.S.I.C.C.C.Z.Z.V.V.M.M.M.V.B.A.B.A.A.A.U.U.S.S.S.Y.Y.S.S.S.S.S.Y.Q.Y.Y.S.S.Y.S.C.C.P.C.C.C.C.I.I.C.C.l.#.#.",
"9XOXE.g.d.' b d d h c ! *.%.g.h.h.g.h.h.g.v.v.g.g.v.v.h.h.h.h.h.v.v.v.v.v.v.v.v.v.v.V.V.V.V.V.V.V.M.M.M.M.M.V.V.m.m.C.n.n.v.m.m.h.h.n.$.] ' ",
"9X.XE.b.k.*._ | | | _ &.-.=.$.$.$.$.;.;.;.$.;.$.$.%.%.k.k.k.k.k.k.k.l.k.k.k.l.k.k.k.l.l.l.k.k.g.g.g.g.d.$.$.%.$.$.#.#.#.#.#.$.$.$.$.$.$.' ' ",
"9X3XW.L.9.6.| <.<.| | <.&.&.&.&.=.&._ &.O.O.X.X./ / / / / / / / / / / / / / / / / / / / ^ ^ / ^ / ^ ~ ~ / / / / / / O./ O./ &.' &.' ' / / _ ",
"qX8X;.v c h h h h h h c c c c c c h h k c h c c c c k c c c c c c c c c c c k k k c c c c c c c v v c c c c c v v v c v v v c c v v C b C C ",
"yXeX..h g g g g g g h h h h g g g g g g g g e g g g g g g g h h h h h h h h h h h h h h h h h h h h h h h h h h h h h h g h g g h h h h h h ",
"yXwX..g e e y l y e g g g g y y y y l g g g e e e e g g g g g l j j l l h g g h g g g g g g g g l e g g g g g g g g g g e e g g g e g g g g "
};
